<mxfile host="65bd71144e">
    <diagram id="U_sXnRrlk3S35rQpbxyd" name="Bulkhead Pattern">
        <mxGraphModel dx="1020" dy="707" grid="1" gridSize="10" guides="1" tooltips="1" connect="1" arrows="1" fold="1" page="1" pageScale="1" pageWidth="850" pageHeight="1100" math="0" shadow="0">
            <root>
                <mxCell id="0"/>
                <mxCell id="1" parent="0"/>
                <mxCell id="ULt90Xs-shfkN2D_Vu1v-103" value="" style="rounded=1;whiteSpace=wrap;html=1;fillColor=none;arcSize=5;dashed=1;fontColor=#333333;strokeColor=#666666;" vertex="1" parent="1">
                    <mxGeometry x="726" y="120" width="380" height="250" as="geometry"/>
                </mxCell>
                <mxCell id="ULt90Xs-shfkN2D_Vu1v-1" value="" style="html=1;verticalLabelPosition=bottom;align=center;labelBackgroundColor=#ffffff;verticalAlign=top;strokeWidth=2;strokeColor=#0080F0;shadow=0;dashed=0;shape=mxgraph.ios7.icons.data;" vertex="1" parent="1">
                    <mxGeometry x="392" y="290" width="65.98" height="80" as="geometry"/>
                </mxCell>
                <mxCell id="ULt90Xs-shfkN2D_Vu1v-41" value="" style="group" vertex="1" connectable="0" parent="1">
                    <mxGeometry x="570" y="70" width="38" height="38" as="geometry"/>
                </mxCell>
                <mxCell id="ULt90Xs-shfkN2D_Vu1v-32" value="" style="ellipse;whiteSpace=wrap;html=1;aspect=fixed;fillColor=#f5f5f5;strokeColor=#666666;fontColor=#333333;" vertex="1" parent="ULt90Xs-shfkN2D_Vu1v-41">
                    <mxGeometry width="10" height="10" as="geometry"/>
                </mxCell>
                <mxCell id="ULt90Xs-shfkN2D_Vu1v-33" value="" style="ellipse;whiteSpace=wrap;html=1;aspect=fixed;fillColor=#f5f5f5;strokeColor=#666666;fontColor=#333333;" vertex="1" parent="ULt90Xs-shfkN2D_Vu1v-41">
                    <mxGeometry x="14" width="10" height="10" as="geometry"/>
                </mxCell>
                <mxCell id="ULt90Xs-shfkN2D_Vu1v-34" value="" style="ellipse;whiteSpace=wrap;html=1;aspect=fixed;fillColor=#f5f5f5;strokeColor=#666666;fontColor=#333333;" vertex="1" parent="ULt90Xs-shfkN2D_Vu1v-41">
                    <mxGeometry x="28" width="10" height="10" as="geometry"/>
                </mxCell>
                <mxCell id="ULt90Xs-shfkN2D_Vu1v-35" value="" style="ellipse;whiteSpace=wrap;html=1;aspect=fixed;fillColor=#f5f5f5;strokeColor=#666666;fontColor=#333333;" vertex="1" parent="ULt90Xs-shfkN2D_Vu1v-41">
                    <mxGeometry y="14" width="10" height="10" as="geometry"/>
                </mxCell>
                <mxCell id="ULt90Xs-shfkN2D_Vu1v-36" value="" style="ellipse;whiteSpace=wrap;html=1;aspect=fixed;fillColor=#f5f5f5;strokeColor=#666666;fontColor=#333333;" vertex="1" parent="ULt90Xs-shfkN2D_Vu1v-41">
                    <mxGeometry x="14" y="14" width="10" height="10" as="geometry"/>
                </mxCell>
                <mxCell id="ULt90Xs-shfkN2D_Vu1v-37" value="" style="ellipse;whiteSpace=wrap;html=1;aspect=fixed;fillColor=#f5f5f5;strokeColor=#666666;fontColor=#333333;" vertex="1" parent="ULt90Xs-shfkN2D_Vu1v-41">
                    <mxGeometry x="28" y="14" width="10" height="10" as="geometry"/>
                </mxCell>
                <mxCell id="ULt90Xs-shfkN2D_Vu1v-38" value="" style="ellipse;whiteSpace=wrap;html=1;aspect=fixed;fillColor=#f5f5f5;strokeColor=#666666;fontColor=#333333;" vertex="1" parent="ULt90Xs-shfkN2D_Vu1v-41">
                    <mxGeometry y="28" width="10" height="10" as="geometry"/>
                </mxCell>
                <mxCell id="ULt90Xs-shfkN2D_Vu1v-39" value="" style="ellipse;whiteSpace=wrap;html=1;aspect=fixed;fillColor=#f5f5f5;strokeColor=#666666;fontColor=#333333;" vertex="1" parent="ULt90Xs-shfkN2D_Vu1v-41">
                    <mxGeometry x="14" y="28" width="10" height="10" as="geometry"/>
                </mxCell>
                <mxCell id="ULt90Xs-shfkN2D_Vu1v-40" value="" style="ellipse;whiteSpace=wrap;html=1;aspect=fixed;fillColor=#f5f5f5;strokeColor=#666666;fontColor=#333333;" vertex="1" parent="ULt90Xs-shfkN2D_Vu1v-41">
                    <mxGeometry x="28" y="28" width="10" height="10" as="geometry"/>
                </mxCell>
                <mxCell id="ULt90Xs-shfkN2D_Vu1v-42" value="" style="group" vertex="1" connectable="0" parent="1">
                    <mxGeometry x="481" y="70" width="38" height="38" as="geometry"/>
                </mxCell>
                <mxCell id="ULt90Xs-shfkN2D_Vu1v-23" value="" style="ellipse;whiteSpace=wrap;html=1;aspect=fixed;fillColor=#dae8fc;strokeColor=#6c8ebf;" vertex="1" parent="ULt90Xs-shfkN2D_Vu1v-42">
                    <mxGeometry width="10" height="10" as="geometry"/>
                </mxCell>
                <mxCell id="ULt90Xs-shfkN2D_Vu1v-24" value="" style="ellipse;whiteSpace=wrap;html=1;aspect=fixed;fillColor=#dae8fc;strokeColor=#6c8ebf;" vertex="1" parent="ULt90Xs-shfkN2D_Vu1v-42">
                    <mxGeometry x="14" width="10" height="10" as="geometry"/>
                </mxCell>
                <mxCell id="ULt90Xs-shfkN2D_Vu1v-25" value="" style="ellipse;whiteSpace=wrap;html=1;aspect=fixed;fillColor=#dae8fc;strokeColor=#6c8ebf;" vertex="1" parent="ULt90Xs-shfkN2D_Vu1v-42">
                    <mxGeometry x="28" width="10" height="10" as="geometry"/>
                </mxCell>
                <mxCell id="ULt90Xs-shfkN2D_Vu1v-26" value="" style="ellipse;whiteSpace=wrap;html=1;aspect=fixed;fillColor=#dae8fc;strokeColor=#6c8ebf;" vertex="1" parent="ULt90Xs-shfkN2D_Vu1v-42">
                    <mxGeometry y="14" width="10" height="10" as="geometry"/>
                </mxCell>
                <mxCell id="ULt90Xs-shfkN2D_Vu1v-27" value="" style="ellipse;whiteSpace=wrap;html=1;aspect=fixed;fillColor=#dae8fc;strokeColor=#6c8ebf;" vertex="1" parent="ULt90Xs-shfkN2D_Vu1v-42">
                    <mxGeometry x="14" y="14" width="10" height="10" as="geometry"/>
                </mxCell>
                <mxCell id="ULt90Xs-shfkN2D_Vu1v-28" value="" style="ellipse;whiteSpace=wrap;html=1;aspect=fixed;fillColor=#dae8fc;strokeColor=#6c8ebf;" vertex="1" parent="ULt90Xs-shfkN2D_Vu1v-42">
                    <mxGeometry x="28" y="14" width="10" height="10" as="geometry"/>
                </mxCell>
                <mxCell id="ULt90Xs-shfkN2D_Vu1v-29" value="" style="ellipse;whiteSpace=wrap;html=1;aspect=fixed;fillColor=#dae8fc;strokeColor=#6c8ebf;" vertex="1" parent="ULt90Xs-shfkN2D_Vu1v-42">
                    <mxGeometry y="28" width="10" height="10" as="geometry"/>
                </mxCell>
                <mxCell id="ULt90Xs-shfkN2D_Vu1v-30" value="" style="ellipse;whiteSpace=wrap;html=1;aspect=fixed;fillColor=#dae8fc;strokeColor=#6c8ebf;" vertex="1" parent="ULt90Xs-shfkN2D_Vu1v-42">
                    <mxGeometry x="14" y="28" width="10" height="10" as="geometry"/>
                </mxCell>
                <mxCell id="ULt90Xs-shfkN2D_Vu1v-31" value="" style="ellipse;whiteSpace=wrap;html=1;aspect=fixed;fillColor=#dae8fc;strokeColor=#6c8ebf;" vertex="1" parent="ULt90Xs-shfkN2D_Vu1v-42">
                    <mxGeometry x="28" y="28" width="10" height="10" as="geometry"/>
                </mxCell>
                <mxCell id="ULt90Xs-shfkN2D_Vu1v-43" value="" style="group" vertex="1" connectable="0" parent="1">
                    <mxGeometry x="330" y="70" width="38" height="38" as="geometry"/>
                </mxCell>
                <mxCell id="ULt90Xs-shfkN2D_Vu1v-14" value="" style="ellipse;whiteSpace=wrap;html=1;aspect=fixed;fillColor=#e1d5e7;strokeColor=#9673a6;" vertex="1" parent="ULt90Xs-shfkN2D_Vu1v-43">
                    <mxGeometry width="10" height="10" as="geometry"/>
                </mxCell>
                <mxCell id="ULt90Xs-shfkN2D_Vu1v-15" value="" style="ellipse;whiteSpace=wrap;html=1;aspect=fixed;fillColor=#e1d5e7;strokeColor=#9673a6;" vertex="1" parent="ULt90Xs-shfkN2D_Vu1v-43">
                    <mxGeometry x="14" width="10" height="10" as="geometry"/>
                </mxCell>
                <mxCell id="ULt90Xs-shfkN2D_Vu1v-16" value="" style="ellipse;whiteSpace=wrap;html=1;aspect=fixed;fillColor=#e1d5e7;strokeColor=#9673a6;" vertex="1" parent="ULt90Xs-shfkN2D_Vu1v-43">
                    <mxGeometry x="28" width="10" height="10" as="geometry"/>
                </mxCell>
                <mxCell id="ULt90Xs-shfkN2D_Vu1v-17" value="" style="ellipse;whiteSpace=wrap;html=1;aspect=fixed;fillColor=#e1d5e7;strokeColor=#9673a6;" vertex="1" parent="ULt90Xs-shfkN2D_Vu1v-43">
                    <mxGeometry y="14" width="10" height="10" as="geometry"/>
                </mxCell>
                <mxCell id="ULt90Xs-shfkN2D_Vu1v-18" value="" style="ellipse;whiteSpace=wrap;html=1;aspect=fixed;fillColor=#e1d5e7;strokeColor=#9673a6;" vertex="1" parent="ULt90Xs-shfkN2D_Vu1v-43">
                    <mxGeometry x="14" y="14" width="10" height="10" as="geometry"/>
                </mxCell>
                <mxCell id="ULt90Xs-shfkN2D_Vu1v-19" value="" style="ellipse;whiteSpace=wrap;html=1;aspect=fixed;fillColor=#e1d5e7;strokeColor=#9673a6;" vertex="1" parent="ULt90Xs-shfkN2D_Vu1v-43">
                    <mxGeometry x="28" y="14" width="10" height="10" as="geometry"/>
                </mxCell>
                <mxCell id="ULt90Xs-shfkN2D_Vu1v-20" value="" style="ellipse;whiteSpace=wrap;html=1;aspect=fixed;fillColor=#e1d5e7;strokeColor=#9673a6;" vertex="1" parent="ULt90Xs-shfkN2D_Vu1v-43">
                    <mxGeometry y="28" width="10" height="10" as="geometry"/>
                </mxCell>
                <mxCell id="ULt90Xs-shfkN2D_Vu1v-21" value="" style="ellipse;whiteSpace=wrap;html=1;aspect=fixed;fillColor=#e1d5e7;strokeColor=#9673a6;" vertex="1" parent="ULt90Xs-shfkN2D_Vu1v-43">
                    <mxGeometry x="14" y="28" width="10" height="10" as="geometry"/>
                </mxCell>
                <mxCell id="ULt90Xs-shfkN2D_Vu1v-22" value="" style="ellipse;whiteSpace=wrap;html=1;aspect=fixed;fillColor=#e1d5e7;strokeColor=#9673a6;" vertex="1" parent="ULt90Xs-shfkN2D_Vu1v-43">
                    <mxGeometry x="28" y="28" width="10" height="10" as="geometry"/>
                </mxCell>
                <mxCell id="ULt90Xs-shfkN2D_Vu1v-44" value="" style="group" vertex="1" connectable="0" parent="1">
                    <mxGeometry x="250" y="70" width="38" height="38" as="geometry"/>
                </mxCell>
                <mxCell id="ULt90Xs-shfkN2D_Vu1v-4" value="" style="ellipse;whiteSpace=wrap;html=1;aspect=fixed;fillColor=#fff2cc;strokeColor=#d6b656;" vertex="1" parent="ULt90Xs-shfkN2D_Vu1v-44">
                    <mxGeometry width="10" height="10" as="geometry"/>
                </mxCell>
                <mxCell id="ULt90Xs-shfkN2D_Vu1v-5" value="" style="ellipse;whiteSpace=wrap;html=1;aspect=fixed;fillColor=#fff2cc;strokeColor=#d6b656;" vertex="1" parent="ULt90Xs-shfkN2D_Vu1v-44">
                    <mxGeometry x="14" width="10" height="10" as="geometry"/>
                </mxCell>
                <mxCell id="ULt90Xs-shfkN2D_Vu1v-6" value="" style="ellipse;whiteSpace=wrap;html=1;aspect=fixed;fillColor=#fff2cc;strokeColor=#d6b656;" vertex="1" parent="ULt90Xs-shfkN2D_Vu1v-44">
                    <mxGeometry x="28" width="10" height="10" as="geometry"/>
                </mxCell>
                <mxCell id="ULt90Xs-shfkN2D_Vu1v-7" value="" style="ellipse;whiteSpace=wrap;html=1;aspect=fixed;fillColor=#fff2cc;strokeColor=#d6b656;" vertex="1" parent="ULt90Xs-shfkN2D_Vu1v-44">
                    <mxGeometry y="14" width="10" height="10" as="geometry"/>
                </mxCell>
                <mxCell id="ULt90Xs-shfkN2D_Vu1v-8" value="" style="ellipse;whiteSpace=wrap;html=1;aspect=fixed;fillColor=#fff2cc;strokeColor=#d6b656;" vertex="1" parent="ULt90Xs-shfkN2D_Vu1v-44">
                    <mxGeometry x="14" y="14" width="10" height="10" as="geometry"/>
                </mxCell>
                <mxCell id="ULt90Xs-shfkN2D_Vu1v-9" value="" style="ellipse;whiteSpace=wrap;html=1;aspect=fixed;fillColor=#fff2cc;strokeColor=#d6b656;" vertex="1" parent="ULt90Xs-shfkN2D_Vu1v-44">
                    <mxGeometry x="28" y="14" width="10" height="10" as="geometry"/>
                </mxCell>
                <mxCell id="ULt90Xs-shfkN2D_Vu1v-10" value="" style="ellipse;whiteSpace=wrap;html=1;aspect=fixed;fillColor=#fff2cc;strokeColor=#d6b656;" vertex="1" parent="ULt90Xs-shfkN2D_Vu1v-44">
                    <mxGeometry y="28" width="10" height="10" as="geometry"/>
                </mxCell>
                <mxCell id="ULt90Xs-shfkN2D_Vu1v-11" value="" style="ellipse;whiteSpace=wrap;html=1;aspect=fixed;fillColor=#fff2cc;strokeColor=#d6b656;" vertex="1" parent="ULt90Xs-shfkN2D_Vu1v-44">
                    <mxGeometry x="14" y="28" width="10" height="10" as="geometry"/>
                </mxCell>
                <mxCell id="ULt90Xs-shfkN2D_Vu1v-12" value="" style="ellipse;whiteSpace=wrap;html=1;aspect=fixed;fillColor=#fff2cc;strokeColor=#d6b656;" vertex="1" parent="ULt90Xs-shfkN2D_Vu1v-44">
                    <mxGeometry x="28" y="28" width="10" height="10" as="geometry"/>
                </mxCell>
                <mxCell id="ULt90Xs-shfkN2D_Vu1v-45" style="edgeStyle=none;html=1;entryX=0.987;entryY=0.286;entryDx=0;entryDy=0;entryPerimeter=0;" edge="1" parent="1" source="ULt90Xs-shfkN2D_Vu1v-30" target="ULt90Xs-shfkN2D_Vu1v-1">
                    <mxGeometry relative="1" as="geometry">
                        <Array as="points">
                            <mxPoint x="500" y="313"/>
                        </Array>
                    </mxGeometry>
                </mxCell>
                <mxCell id="ULt90Xs-shfkN2D_Vu1v-46" style="edgeStyle=none;html=1;entryX=0.979;entryY=0.55;entryDx=0;entryDy=0;entryPerimeter=0;" edge="1" parent="1" source="ULt90Xs-shfkN2D_Vu1v-39" target="ULt90Xs-shfkN2D_Vu1v-1">
                    <mxGeometry relative="1" as="geometry">
                        <Array as="points">
                            <mxPoint x="590" y="334"/>
                        </Array>
                    </mxGeometry>
                </mxCell>
                <mxCell id="ULt90Xs-shfkN2D_Vu1v-47" style="edgeStyle=none;html=1;entryX=-0.007;entryY=0.272;entryDx=0;entryDy=0;entryPerimeter=0;" edge="1" parent="1" source="ULt90Xs-shfkN2D_Vu1v-21" target="ULt90Xs-shfkN2D_Vu1v-1">
                    <mxGeometry relative="1" as="geometry">
                        <Array as="points">
                            <mxPoint x="349" y="312"/>
                        </Array>
                    </mxGeometry>
                </mxCell>
                <mxCell id="ULt90Xs-shfkN2D_Vu1v-48" style="edgeStyle=orthogonalEdgeStyle;html=1;entryX=-0.007;entryY=0.564;entryDx=0;entryDy=0;entryPerimeter=0;" edge="1" parent="1" source="ULt90Xs-shfkN2D_Vu1v-11" target="ULt90Xs-shfkN2D_Vu1v-1">
                    <mxGeometry relative="1" as="geometry">
                        <Array as="points">
                            <mxPoint x="269" y="335"/>
                        </Array>
                    </mxGeometry>
                </mxCell>
                <mxCell id="ULt90Xs-shfkN2D_Vu1v-49" value="" style="html=1;verticalLabelPosition=bottom;align=center;labelBackgroundColor=#ffffff;verticalAlign=top;strokeWidth=2;strokeColor=#0080F0;shadow=0;dashed=0;shape=mxgraph.ios7.icons.data;" vertex="1" parent="1">
                    <mxGeometry x="878" y="280" width="65.98" height="80" as="geometry"/>
                </mxCell>
                <mxCell id="ULt90Xs-shfkN2D_Vu1v-50" value="" style="group" vertex="1" connectable="0" parent="1">
                    <mxGeometry x="1056" y="60" width="38" height="38" as="geometry"/>
                </mxCell>
                <mxCell id="ULt90Xs-shfkN2D_Vu1v-51" value="" style="ellipse;whiteSpace=wrap;html=1;aspect=fixed;fillColor=#f5f5f5;strokeColor=#666666;fontColor=#333333;" vertex="1" parent="ULt90Xs-shfkN2D_Vu1v-50">
                    <mxGeometry width="10" height="10" as="geometry"/>
                </mxCell>
                <mxCell id="ULt90Xs-shfkN2D_Vu1v-52" value="" style="ellipse;whiteSpace=wrap;html=1;aspect=fixed;fillColor=#f5f5f5;strokeColor=#666666;fontColor=#333333;" vertex="1" parent="ULt90Xs-shfkN2D_Vu1v-50">
                    <mxGeometry x="14" width="10" height="10" as="geometry"/>
                </mxCell>
                <mxCell id="ULt90Xs-shfkN2D_Vu1v-53" value="" style="ellipse;whiteSpace=wrap;html=1;aspect=fixed;fillColor=#f5f5f5;strokeColor=#666666;fontColor=#333333;" vertex="1" parent="ULt90Xs-shfkN2D_Vu1v-50">
                    <mxGeometry x="28" width="10" height="10" as="geometry"/>
                </mxCell>
                <mxCell id="ULt90Xs-shfkN2D_Vu1v-54" value="" style="ellipse;whiteSpace=wrap;html=1;aspect=fixed;fillColor=#f5f5f5;strokeColor=#666666;fontColor=#333333;" vertex="1" parent="ULt90Xs-shfkN2D_Vu1v-50">
                    <mxGeometry y="14" width="10" height="10" as="geometry"/>
                </mxCell>
                <mxCell id="ULt90Xs-shfkN2D_Vu1v-55" value="" style="ellipse;whiteSpace=wrap;html=1;aspect=fixed;fillColor=#f5f5f5;strokeColor=#666666;fontColor=#333333;" vertex="1" parent="ULt90Xs-shfkN2D_Vu1v-50">
                    <mxGeometry x="14" y="14" width="10" height="10" as="geometry"/>
                </mxCell>
                <mxCell id="ULt90Xs-shfkN2D_Vu1v-56" value="" style="ellipse;whiteSpace=wrap;html=1;aspect=fixed;fillColor=#f5f5f5;strokeColor=#666666;fontColor=#333333;" vertex="1" parent="ULt90Xs-shfkN2D_Vu1v-50">
                    <mxGeometry x="28" y="14" width="10" height="10" as="geometry"/>
                </mxCell>
                <mxCell id="ULt90Xs-shfkN2D_Vu1v-57" value="" style="ellipse;whiteSpace=wrap;html=1;aspect=fixed;fillColor=#f5f5f5;strokeColor=#666666;fontColor=#333333;" vertex="1" parent="ULt90Xs-shfkN2D_Vu1v-50">
                    <mxGeometry y="28" width="10" height="10" as="geometry"/>
                </mxCell>
                <mxCell id="ULt90Xs-shfkN2D_Vu1v-58" value="" style="ellipse;whiteSpace=wrap;html=1;aspect=fixed;fillColor=#f5f5f5;strokeColor=#666666;fontColor=#333333;" vertex="1" parent="ULt90Xs-shfkN2D_Vu1v-50">
                    <mxGeometry x="14" y="28" width="10" height="10" as="geometry"/>
                </mxCell>
                <mxCell id="ULt90Xs-shfkN2D_Vu1v-59" value="" style="ellipse;whiteSpace=wrap;html=1;aspect=fixed;fillColor=#f5f5f5;strokeColor=#666666;fontColor=#333333;" vertex="1" parent="ULt90Xs-shfkN2D_Vu1v-50">
                    <mxGeometry x="28" y="28" width="10" height="10" as="geometry"/>
                </mxCell>
                <mxCell id="ULt90Xs-shfkN2D_Vu1v-60" value="" style="group" vertex="1" connectable="0" parent="1">
                    <mxGeometry x="962" y="60" width="38" height="38" as="geometry"/>
                </mxCell>
                <mxCell id="ULt90Xs-shfkN2D_Vu1v-61" value="" style="ellipse;whiteSpace=wrap;html=1;aspect=fixed;fillColor=#dae8fc;strokeColor=#6c8ebf;" vertex="1" parent="ULt90Xs-shfkN2D_Vu1v-60">
                    <mxGeometry width="10" height="10" as="geometry"/>
                </mxCell>
                <mxCell id="ULt90Xs-shfkN2D_Vu1v-62" value="" style="ellipse;whiteSpace=wrap;html=1;aspect=fixed;fillColor=#dae8fc;strokeColor=#6c8ebf;" vertex="1" parent="ULt90Xs-shfkN2D_Vu1v-60">
                    <mxGeometry x="14" width="10" height="10" as="geometry"/>
                </mxCell>
                <mxCell id="ULt90Xs-shfkN2D_Vu1v-63" value="" style="ellipse;whiteSpace=wrap;html=1;aspect=fixed;fillColor=#dae8fc;strokeColor=#6c8ebf;" vertex="1" parent="ULt90Xs-shfkN2D_Vu1v-60">
                    <mxGeometry x="28" width="10" height="10" as="geometry"/>
                </mxCell>
                <mxCell id="ULt90Xs-shfkN2D_Vu1v-64" value="" style="ellipse;whiteSpace=wrap;html=1;aspect=fixed;fillColor=#dae8fc;strokeColor=#6c8ebf;" vertex="1" parent="ULt90Xs-shfkN2D_Vu1v-60">
                    <mxGeometry y="14" width="10" height="10" as="geometry"/>
                </mxCell>
                <mxCell id="ULt90Xs-shfkN2D_Vu1v-65" value="" style="ellipse;whiteSpace=wrap;html=1;aspect=fixed;fillColor=#dae8fc;strokeColor=#6c8ebf;" vertex="1" parent="ULt90Xs-shfkN2D_Vu1v-60">
                    <mxGeometry x="14" y="14" width="10" height="10" as="geometry"/>
                </mxCell>
                <mxCell id="ULt90Xs-shfkN2D_Vu1v-66" value="" style="ellipse;whiteSpace=wrap;html=1;aspect=fixed;fillColor=#dae8fc;strokeColor=#6c8ebf;" vertex="1" parent="ULt90Xs-shfkN2D_Vu1v-60">
                    <mxGeometry x="28" y="14" width="10" height="10" as="geometry"/>
                </mxCell>
                <mxCell id="ULt90Xs-shfkN2D_Vu1v-67" value="" style="ellipse;whiteSpace=wrap;html=1;aspect=fixed;fillColor=#dae8fc;strokeColor=#6c8ebf;" vertex="1" parent="ULt90Xs-shfkN2D_Vu1v-60">
                    <mxGeometry y="28" width="10" height="10" as="geometry"/>
                </mxCell>
                <mxCell id="ULt90Xs-shfkN2D_Vu1v-68" value="" style="ellipse;whiteSpace=wrap;html=1;aspect=fixed;fillColor=#dae8fc;strokeColor=#6c8ebf;" vertex="1" parent="ULt90Xs-shfkN2D_Vu1v-60">
                    <mxGeometry x="14" y="28" width="10" height="10" as="geometry"/>
                </mxCell>
                <mxCell id="ULt90Xs-shfkN2D_Vu1v-69" value="" style="ellipse;whiteSpace=wrap;html=1;aspect=fixed;fillColor=#dae8fc;strokeColor=#6c8ebf;" vertex="1" parent="ULt90Xs-shfkN2D_Vu1v-60">
                    <mxGeometry x="28" y="28" width="10" height="10" as="geometry"/>
                </mxCell>
                <mxCell id="ULt90Xs-shfkN2D_Vu1v-70" value="" style="group" vertex="1" connectable="0" parent="1">
                    <mxGeometry x="816" y="60" width="38" height="38" as="geometry"/>
                </mxCell>
                <mxCell id="ULt90Xs-shfkN2D_Vu1v-71" value="" style="ellipse;whiteSpace=wrap;html=1;aspect=fixed;fillColor=#e1d5e7;strokeColor=#9673a6;" vertex="1" parent="ULt90Xs-shfkN2D_Vu1v-70">
                    <mxGeometry width="10" height="10" as="geometry"/>
                </mxCell>
                <mxCell id="ULt90Xs-shfkN2D_Vu1v-72" value="" style="ellipse;whiteSpace=wrap;html=1;aspect=fixed;fillColor=#e1d5e7;strokeColor=#9673a6;" vertex="1" parent="ULt90Xs-shfkN2D_Vu1v-70">
                    <mxGeometry x="14" width="10" height="10" as="geometry"/>
                </mxCell>
                <mxCell id="ULt90Xs-shfkN2D_Vu1v-73" value="" style="ellipse;whiteSpace=wrap;html=1;aspect=fixed;fillColor=#e1d5e7;strokeColor=#9673a6;" vertex="1" parent="ULt90Xs-shfkN2D_Vu1v-70">
                    <mxGeometry x="28" width="10" height="10" as="geometry"/>
                </mxCell>
                <mxCell id="ULt90Xs-shfkN2D_Vu1v-74" value="" style="ellipse;whiteSpace=wrap;html=1;aspect=fixed;fillColor=#e1d5e7;strokeColor=#9673a6;" vertex="1" parent="ULt90Xs-shfkN2D_Vu1v-70">
                    <mxGeometry y="14" width="10" height="10" as="geometry"/>
                </mxCell>
                <mxCell id="ULt90Xs-shfkN2D_Vu1v-75" value="" style="ellipse;whiteSpace=wrap;html=1;aspect=fixed;fillColor=#e1d5e7;strokeColor=#9673a6;" vertex="1" parent="ULt90Xs-shfkN2D_Vu1v-70">
                    <mxGeometry x="14" y="14" width="10" height="10" as="geometry"/>
                </mxCell>
                <mxCell id="ULt90Xs-shfkN2D_Vu1v-76" value="" style="ellipse;whiteSpace=wrap;html=1;aspect=fixed;fillColor=#e1d5e7;strokeColor=#9673a6;" vertex="1" parent="ULt90Xs-shfkN2D_Vu1v-70">
                    <mxGeometry x="28" y="14" width="10" height="10" as="geometry"/>
                </mxCell>
                <mxCell id="ULt90Xs-shfkN2D_Vu1v-77" value="" style="ellipse;whiteSpace=wrap;html=1;aspect=fixed;fillColor=#e1d5e7;strokeColor=#9673a6;" vertex="1" parent="ULt90Xs-shfkN2D_Vu1v-70">
                    <mxGeometry y="28" width="10" height="10" as="geometry"/>
                </mxCell>
                <mxCell id="ULt90Xs-shfkN2D_Vu1v-78" value="" style="ellipse;whiteSpace=wrap;html=1;aspect=fixed;fillColor=#e1d5e7;strokeColor=#9673a6;" vertex="1" parent="ULt90Xs-shfkN2D_Vu1v-70">
                    <mxGeometry x="14" y="28" width="10" height="10" as="geometry"/>
                </mxCell>
                <mxCell id="ULt90Xs-shfkN2D_Vu1v-79" value="" style="ellipse;whiteSpace=wrap;html=1;aspect=fixed;fillColor=#e1d5e7;strokeColor=#9673a6;" vertex="1" parent="ULt90Xs-shfkN2D_Vu1v-70">
                    <mxGeometry x="28" y="28" width="10" height="10" as="geometry"/>
                </mxCell>
                <mxCell id="ULt90Xs-shfkN2D_Vu1v-80" value="" style="group" vertex="1" connectable="0" parent="1">
                    <mxGeometry x="736" y="60" width="38" height="38" as="geometry"/>
                </mxCell>
                <mxCell id="ULt90Xs-shfkN2D_Vu1v-81" value="" style="ellipse;whiteSpace=wrap;html=1;aspect=fixed;fillColor=#fff2cc;strokeColor=#d6b656;" vertex="1" parent="ULt90Xs-shfkN2D_Vu1v-80">
                    <mxGeometry width="10" height="10" as="geometry"/>
                </mxCell>
                <mxCell id="ULt90Xs-shfkN2D_Vu1v-82" value="" style="ellipse;whiteSpace=wrap;html=1;aspect=fixed;fillColor=#fff2cc;strokeColor=#d6b656;" vertex="1" parent="ULt90Xs-shfkN2D_Vu1v-80">
                    <mxGeometry x="14" width="10" height="10" as="geometry"/>
                </mxCell>
                <mxCell id="ULt90Xs-shfkN2D_Vu1v-83" value="" style="ellipse;whiteSpace=wrap;html=1;aspect=fixed;fillColor=#fff2cc;strokeColor=#d6b656;" vertex="1" parent="ULt90Xs-shfkN2D_Vu1v-80">
                    <mxGeometry x="28" width="10" height="10" as="geometry"/>
                </mxCell>
                <mxCell id="ULt90Xs-shfkN2D_Vu1v-84" value="" style="ellipse;whiteSpace=wrap;html=1;aspect=fixed;fillColor=#fff2cc;strokeColor=#d6b656;" vertex="1" parent="ULt90Xs-shfkN2D_Vu1v-80">
                    <mxGeometry y="14" width="10" height="10" as="geometry"/>
                </mxCell>
                <mxCell id="ULt90Xs-shfkN2D_Vu1v-85" value="" style="ellipse;whiteSpace=wrap;html=1;aspect=fixed;fillColor=#fff2cc;strokeColor=#d6b656;" vertex="1" parent="ULt90Xs-shfkN2D_Vu1v-80">
                    <mxGeometry x="14" y="14" width="10" height="10" as="geometry"/>
                </mxCell>
                <mxCell id="ULt90Xs-shfkN2D_Vu1v-86" value="" style="ellipse;whiteSpace=wrap;html=1;aspect=fixed;fillColor=#fff2cc;strokeColor=#d6b656;" vertex="1" parent="ULt90Xs-shfkN2D_Vu1v-80">
                    <mxGeometry x="28" y="14" width="10" height="10" as="geometry"/>
                </mxCell>
                <mxCell id="ULt90Xs-shfkN2D_Vu1v-87" value="" style="ellipse;whiteSpace=wrap;html=1;aspect=fixed;fillColor=#fff2cc;strokeColor=#d6b656;" vertex="1" parent="ULt90Xs-shfkN2D_Vu1v-80">
                    <mxGeometry y="28" width="10" height="10" as="geometry"/>
                </mxCell>
                <mxCell id="ULt90Xs-shfkN2D_Vu1v-88" value="" style="ellipse;whiteSpace=wrap;html=1;aspect=fixed;fillColor=#fff2cc;strokeColor=#d6b656;" vertex="1" parent="ULt90Xs-shfkN2D_Vu1v-80">
                    <mxGeometry x="14" y="28" width="10" height="10" as="geometry"/>
                </mxCell>
                <mxCell id="ULt90Xs-shfkN2D_Vu1v-89" value="" style="ellipse;whiteSpace=wrap;html=1;aspect=fixed;fillColor=#fff2cc;strokeColor=#d6b656;" vertex="1" parent="ULt90Xs-shfkN2D_Vu1v-80">
                    <mxGeometry x="28" y="28" width="10" height="10" as="geometry"/>
                </mxCell>
                <mxCell id="ULt90Xs-shfkN2D_Vu1v-90" style="edgeStyle=none;html=1;entryX=0.987;entryY=0.286;entryDx=0;entryDy=0;entryPerimeter=0;" edge="1" source="ULt90Xs-shfkN2D_Vu1v-98" target="ULt90Xs-shfkN2D_Vu1v-49" parent="1">
                    <mxGeometry relative="1" as="geometry">
                        <Array as="points">
                            <mxPoint x="986" y="303"/>
                        </Array>
                    </mxGeometry>
                </mxCell>
                <mxCell id="ULt90Xs-shfkN2D_Vu1v-91" style="edgeStyle=none;html=1;entryX=0.979;entryY=0.55;entryDx=0;entryDy=0;entryPerimeter=0;exitX=0.5;exitY=1;exitDx=0;exitDy=0;" edge="1" source="ULt90Xs-shfkN2D_Vu1v-101" target="ULt90Xs-shfkN2D_Vu1v-49" parent="1">
                    <mxGeometry relative="1" as="geometry">
                        <mxPoint x="1066" y="360" as="sourcePoint"/>
                        <Array as="points">
                            <mxPoint x="1076" y="324"/>
                        </Array>
                    </mxGeometry>
                </mxCell>
                <mxCell id="ULt90Xs-shfkN2D_Vu1v-92" style="edgeStyle=none;html=1;entryX=-0.007;entryY=0.272;entryDx=0;entryDy=0;entryPerimeter=0;" edge="1" source="ULt90Xs-shfkN2D_Vu1v-96" target="ULt90Xs-shfkN2D_Vu1v-49" parent="1">
                    <mxGeometry relative="1" as="geometry">
                        <Array as="points">
                            <mxPoint x="835" y="302"/>
                        </Array>
                    </mxGeometry>
                </mxCell>
                <mxCell id="ULt90Xs-shfkN2D_Vu1v-93" style="edgeStyle=orthogonalEdgeStyle;html=1;entryX=-0.007;entryY=0.564;entryDx=0;entryDy=0;entryPerimeter=0;" edge="1" source="ULt90Xs-shfkN2D_Vu1v-94" target="ULt90Xs-shfkN2D_Vu1v-49" parent="1">
                    <mxGeometry relative="1" as="geometry">
                        <Array as="points">
                            <mxPoint x="755" y="325"/>
                        </Array>
                    </mxGeometry>
                </mxCell>
                <mxCell id="ULt90Xs-shfkN2D_Vu1v-95" value="" style="edgeStyle=orthogonalEdgeStyle;html=1;entryX=0.5;entryY=0;entryDx=0;entryDy=0;" edge="1" parent="1" source="ULt90Xs-shfkN2D_Vu1v-88" target="ULt90Xs-shfkN2D_Vu1v-94">
                    <mxGeometry relative="1" as="geometry">
                        <mxPoint x="755" y="98" as="sourcePoint"/>
                        <mxPoint x="878" y="325" as="targetPoint"/>
                        <Array as="points"/>
                    </mxGeometry>
                </mxCell>
                <mxCell id="ULt90Xs-shfkN2D_Vu1v-94" value="Connection Pool" style="rounded=1;whiteSpace=wrap;html=1;textDirection=vertical-lr;fillColor=#d5e8d4;strokeColor=#82b366;" vertex="1" parent="1">
                    <mxGeometry x="740" y="150" width="30" height="120" as="geometry"/>
                </mxCell>
                <mxCell id="ULt90Xs-shfkN2D_Vu1v-97" value="" style="edgeStyle=none;html=1;entryX=0.5;entryY=0;entryDx=0;entryDy=0;" edge="1" parent="1" source="ULt90Xs-shfkN2D_Vu1v-78" target="ULt90Xs-shfkN2D_Vu1v-96">
                    <mxGeometry relative="1" as="geometry">
                        <mxPoint x="835" y="98" as="sourcePoint"/>
                        <mxPoint x="878" y="302" as="targetPoint"/>
                        <Array as="points"/>
                    </mxGeometry>
                </mxCell>
                <mxCell id="ULt90Xs-shfkN2D_Vu1v-96" value="Connection Pool" style="rounded=1;whiteSpace=wrap;html=1;textDirection=vertical-lr;fillColor=#d5e8d4;strokeColor=#82b366;" vertex="1" parent="1">
                    <mxGeometry x="820" y="150" width="30" height="120" as="geometry"/>
                </mxCell>
                <mxCell id="ULt90Xs-shfkN2D_Vu1v-99" value="" style="edgeStyle=none;html=1;entryX=0.5;entryY=0;entryDx=0;entryDy=0;" edge="1" parent="1" source="ULt90Xs-shfkN2D_Vu1v-68" target="ULt90Xs-shfkN2D_Vu1v-98">
                    <mxGeometry relative="1" as="geometry">
                        <mxPoint x="986" y="98" as="sourcePoint"/>
                        <mxPoint x="943" y="303" as="targetPoint"/>
                        <Array as="points"/>
                    </mxGeometry>
                </mxCell>
                <mxCell id="ULt90Xs-shfkN2D_Vu1v-98" value="Connection Pool" style="rounded=1;whiteSpace=wrap;html=1;textDirection=vertical-lr;fillColor=#d5e8d4;strokeColor=#82b366;" vertex="1" parent="1">
                    <mxGeometry x="967" y="150" width="30" height="120" as="geometry"/>
                </mxCell>
                <mxCell id="ULt90Xs-shfkN2D_Vu1v-102" value="" style="html=1;entryX=0.5;entryY=0;entryDx=0;entryDy=0;" edge="1" parent="1" source="ULt90Xs-shfkN2D_Vu1v-58" target="ULt90Xs-shfkN2D_Vu1v-101">
                    <mxGeometry relative="1" as="geometry">
                        <mxPoint x="1075" y="98" as="sourcePoint"/>
                        <mxPoint x="943" y="324" as="targetPoint"/>
                    </mxGeometry>
                </mxCell>
                <mxCell id="ULt90Xs-shfkN2D_Vu1v-101" value="Connection Pool" style="rounded=1;whiteSpace=wrap;html=1;textDirection=vertical-lr;fillColor=#d5e8d4;strokeColor=#82b366;" vertex="1" parent="1">
                    <mxGeometry x="1060" y="150" width="30" height="120" as="geometry"/>
                </mxCell>
                <mxCell id="ULt90Xs-shfkN2D_Vu1v-104" value="" style="rounded=1;whiteSpace=wrap;html=1;fillColor=none;arcSize=5;dashed=1;fontColor=#333333;strokeColor=#666666;" vertex="1" parent="1">
                    <mxGeometry x="1246" y="120" width="380" height="250" as="geometry"/>
                </mxCell>
                <mxCell id="ULt90Xs-shfkN2D_Vu1v-105" value="" style="html=1;verticalLabelPosition=bottom;align=center;labelBackgroundColor=#ffffff;verticalAlign=top;strokeWidth=2;strokeColor=#0080F0;shadow=0;dashed=0;shape=mxgraph.ios7.icons.data;" vertex="1" parent="1">
                    <mxGeometry x="1398" y="280" width="65.98" height="80" as="geometry"/>
                </mxCell>
                <mxCell id="ULt90Xs-shfkN2D_Vu1v-106" value="" style="group" vertex="1" connectable="0" parent="1">
                    <mxGeometry x="1576" y="60" width="38" height="38" as="geometry"/>
                </mxCell>
                <mxCell id="ULt90Xs-shfkN2D_Vu1v-107" value="" style="ellipse;whiteSpace=wrap;html=1;aspect=fixed;fillColor=#f5f5f5;strokeColor=#666666;fontColor=#333333;" vertex="1" parent="ULt90Xs-shfkN2D_Vu1v-106">
                    <mxGeometry width="10" height="10" as="geometry"/>
                </mxCell>
                <mxCell id="ULt90Xs-shfkN2D_Vu1v-108" value="" style="ellipse;whiteSpace=wrap;html=1;aspect=fixed;fillColor=#f5f5f5;strokeColor=#666666;fontColor=#333333;" vertex="1" parent="ULt90Xs-shfkN2D_Vu1v-106">
                    <mxGeometry x="14" width="10" height="10" as="geometry"/>
                </mxCell>
                <mxCell id="ULt90Xs-shfkN2D_Vu1v-109" value="" style="ellipse;whiteSpace=wrap;html=1;aspect=fixed;fillColor=#f5f5f5;strokeColor=#666666;fontColor=#333333;" vertex="1" parent="ULt90Xs-shfkN2D_Vu1v-106">
                    <mxGeometry x="28" width="10" height="10" as="geometry"/>
                </mxCell>
                <mxCell id="ULt90Xs-shfkN2D_Vu1v-110" value="" style="ellipse;whiteSpace=wrap;html=1;aspect=fixed;fillColor=#f5f5f5;strokeColor=#666666;fontColor=#333333;" vertex="1" parent="ULt90Xs-shfkN2D_Vu1v-106">
                    <mxGeometry y="14" width="10" height="10" as="geometry"/>
                </mxCell>
                <mxCell id="ULt90Xs-shfkN2D_Vu1v-111" value="" style="ellipse;whiteSpace=wrap;html=1;aspect=fixed;fillColor=#f5f5f5;strokeColor=#666666;fontColor=#333333;" vertex="1" parent="ULt90Xs-shfkN2D_Vu1v-106">
                    <mxGeometry x="14" y="14" width="10" height="10" as="geometry"/>
                </mxCell>
                <mxCell id="ULt90Xs-shfkN2D_Vu1v-112" value="" style="ellipse;whiteSpace=wrap;html=1;aspect=fixed;fillColor=#f5f5f5;strokeColor=#666666;fontColor=#333333;" vertex="1" parent="ULt90Xs-shfkN2D_Vu1v-106">
                    <mxGeometry x="28" y="14" width="10" height="10" as="geometry"/>
                </mxCell>
                <mxCell id="ULt90Xs-shfkN2D_Vu1v-113" value="" style="ellipse;whiteSpace=wrap;html=1;aspect=fixed;fillColor=#f5f5f5;strokeColor=#666666;fontColor=#333333;" vertex="1" parent="ULt90Xs-shfkN2D_Vu1v-106">
                    <mxGeometry y="28" width="10" height="10" as="geometry"/>
                </mxCell>
                <mxCell id="ULt90Xs-shfkN2D_Vu1v-114" value="" style="ellipse;whiteSpace=wrap;html=1;aspect=fixed;fillColor=#f5f5f5;strokeColor=#666666;fontColor=#333333;" vertex="1" parent="ULt90Xs-shfkN2D_Vu1v-106">
                    <mxGeometry x="14" y="28" width="10" height="10" as="geometry"/>
                </mxCell>
                <mxCell id="ULt90Xs-shfkN2D_Vu1v-115" value="" style="ellipse;whiteSpace=wrap;html=1;aspect=fixed;fillColor=#f5f5f5;strokeColor=#666666;fontColor=#333333;" vertex="1" parent="ULt90Xs-shfkN2D_Vu1v-106">
                    <mxGeometry x="28" y="28" width="10" height="10" as="geometry"/>
                </mxCell>
                <mxCell id="ULt90Xs-shfkN2D_Vu1v-116" value="" style="group" vertex="1" connectable="0" parent="1">
                    <mxGeometry x="1482" y="60" width="38" height="38" as="geometry"/>
                </mxCell>
                <mxCell id="ULt90Xs-shfkN2D_Vu1v-117" value="" style="ellipse;whiteSpace=wrap;html=1;aspect=fixed;fillColor=#dae8fc;strokeColor=#6c8ebf;" vertex="1" parent="ULt90Xs-shfkN2D_Vu1v-116">
                    <mxGeometry width="10" height="10" as="geometry"/>
                </mxCell>
                <mxCell id="ULt90Xs-shfkN2D_Vu1v-118" value="" style="ellipse;whiteSpace=wrap;html=1;aspect=fixed;fillColor=#dae8fc;strokeColor=#6c8ebf;" vertex="1" parent="ULt90Xs-shfkN2D_Vu1v-116">
                    <mxGeometry x="14" width="10" height="10" as="geometry"/>
                </mxCell>
                <mxCell id="ULt90Xs-shfkN2D_Vu1v-119" value="" style="ellipse;whiteSpace=wrap;html=1;aspect=fixed;fillColor=#dae8fc;strokeColor=#6c8ebf;" vertex="1" parent="ULt90Xs-shfkN2D_Vu1v-116">
                    <mxGeometry x="28" width="10" height="10" as="geometry"/>
                </mxCell>
                <mxCell id="ULt90Xs-shfkN2D_Vu1v-120" value="" style="ellipse;whiteSpace=wrap;html=1;aspect=fixed;fillColor=#dae8fc;strokeColor=#6c8ebf;" vertex="1" parent="ULt90Xs-shfkN2D_Vu1v-116">
                    <mxGeometry y="14" width="10" height="10" as="geometry"/>
                </mxCell>
                <mxCell id="ULt90Xs-shfkN2D_Vu1v-121" value="" style="ellipse;whiteSpace=wrap;html=1;aspect=fixed;fillColor=#dae8fc;strokeColor=#6c8ebf;" vertex="1" parent="ULt90Xs-shfkN2D_Vu1v-116">
                    <mxGeometry x="14" y="14" width="10" height="10" as="geometry"/>
                </mxCell>
                <mxCell id="ULt90Xs-shfkN2D_Vu1v-122" value="" style="ellipse;whiteSpace=wrap;html=1;aspect=fixed;fillColor=#dae8fc;strokeColor=#6c8ebf;" vertex="1" parent="ULt90Xs-shfkN2D_Vu1v-116">
                    <mxGeometry x="28" y="14" width="10" height="10" as="geometry"/>
                </mxCell>
                <mxCell id="ULt90Xs-shfkN2D_Vu1v-123" value="" style="ellipse;whiteSpace=wrap;html=1;aspect=fixed;fillColor=#dae8fc;strokeColor=#6c8ebf;" vertex="1" parent="ULt90Xs-shfkN2D_Vu1v-116">
                    <mxGeometry y="28" width="10" height="10" as="geometry"/>
                </mxCell>
                <mxCell id="ULt90Xs-shfkN2D_Vu1v-124" value="" style="ellipse;whiteSpace=wrap;html=1;aspect=fixed;fillColor=#dae8fc;strokeColor=#6c8ebf;" vertex="1" parent="ULt90Xs-shfkN2D_Vu1v-116">
                    <mxGeometry x="14" y="28" width="10" height="10" as="geometry"/>
                </mxCell>
                <mxCell id="ULt90Xs-shfkN2D_Vu1v-125" value="" style="ellipse;whiteSpace=wrap;html=1;aspect=fixed;fillColor=#dae8fc;strokeColor=#6c8ebf;" vertex="1" parent="ULt90Xs-shfkN2D_Vu1v-116">
                    <mxGeometry x="28" y="28" width="10" height="10" as="geometry"/>
                </mxCell>
                <mxCell id="ULt90Xs-shfkN2D_Vu1v-126" value="" style="group" vertex="1" connectable="0" parent="1">
                    <mxGeometry x="1336" y="60" width="38" height="38" as="geometry"/>
                </mxCell>
                <mxCell id="ULt90Xs-shfkN2D_Vu1v-127" value="" style="ellipse;whiteSpace=wrap;html=1;aspect=fixed;fillColor=#e1d5e7;strokeColor=#9673a6;" vertex="1" parent="ULt90Xs-shfkN2D_Vu1v-126">
                    <mxGeometry width="10" height="10" as="geometry"/>
                </mxCell>
                <mxCell id="ULt90Xs-shfkN2D_Vu1v-128" value="" style="ellipse;whiteSpace=wrap;html=1;aspect=fixed;fillColor=#e1d5e7;strokeColor=#9673a6;" vertex="1" parent="ULt90Xs-shfkN2D_Vu1v-126">
                    <mxGeometry x="14" width="10" height="10" as="geometry"/>
                </mxCell>
                <mxCell id="ULt90Xs-shfkN2D_Vu1v-129" value="" style="ellipse;whiteSpace=wrap;html=1;aspect=fixed;fillColor=#e1d5e7;strokeColor=#9673a6;" vertex="1" parent="ULt90Xs-shfkN2D_Vu1v-126">
                    <mxGeometry x="28" width="10" height="10" as="geometry"/>
                </mxCell>
                <mxCell id="ULt90Xs-shfkN2D_Vu1v-130" value="" style="ellipse;whiteSpace=wrap;html=1;aspect=fixed;fillColor=#e1d5e7;strokeColor=#9673a6;" vertex="1" parent="ULt90Xs-shfkN2D_Vu1v-126">
                    <mxGeometry y="14" width="10" height="10" as="geometry"/>
                </mxCell>
                <mxCell id="ULt90Xs-shfkN2D_Vu1v-131" value="" style="ellipse;whiteSpace=wrap;html=1;aspect=fixed;fillColor=#e1d5e7;strokeColor=#9673a6;" vertex="1" parent="ULt90Xs-shfkN2D_Vu1v-126">
                    <mxGeometry x="14" y="14" width="10" height="10" as="geometry"/>
                </mxCell>
                <mxCell id="ULt90Xs-shfkN2D_Vu1v-132" value="" style="ellipse;whiteSpace=wrap;html=1;aspect=fixed;fillColor=#e1d5e7;strokeColor=#9673a6;" vertex="1" parent="ULt90Xs-shfkN2D_Vu1v-126">
                    <mxGeometry x="28" y="14" width="10" height="10" as="geometry"/>
                </mxCell>
                <mxCell id="ULt90Xs-shfkN2D_Vu1v-133" value="" style="ellipse;whiteSpace=wrap;html=1;aspect=fixed;fillColor=#e1d5e7;strokeColor=#9673a6;" vertex="1" parent="ULt90Xs-shfkN2D_Vu1v-126">
                    <mxGeometry y="28" width="10" height="10" as="geometry"/>
                </mxCell>
                <mxCell id="ULt90Xs-shfkN2D_Vu1v-134" value="" style="ellipse;whiteSpace=wrap;html=1;aspect=fixed;fillColor=#e1d5e7;strokeColor=#9673a6;" vertex="1" parent="ULt90Xs-shfkN2D_Vu1v-126">
                    <mxGeometry x="14" y="28" width="10" height="10" as="geometry"/>
                </mxCell>
                <mxCell id="ULt90Xs-shfkN2D_Vu1v-135" value="" style="ellipse;whiteSpace=wrap;html=1;aspect=fixed;fillColor=#e1d5e7;strokeColor=#9673a6;" vertex="1" parent="ULt90Xs-shfkN2D_Vu1v-126">
                    <mxGeometry x="28" y="28" width="10" height="10" as="geometry"/>
                </mxCell>
                <mxCell id="ULt90Xs-shfkN2D_Vu1v-136" value="" style="group" vertex="1" connectable="0" parent="1">
                    <mxGeometry x="1256" y="60" width="38" height="38" as="geometry"/>
                </mxCell>
                <mxCell id="ULt90Xs-shfkN2D_Vu1v-137" value="" style="ellipse;whiteSpace=wrap;html=1;aspect=fixed;fillColor=#fff2cc;strokeColor=#d6b656;" vertex="1" parent="ULt90Xs-shfkN2D_Vu1v-136">
                    <mxGeometry width="10" height="10" as="geometry"/>
                </mxCell>
                <mxCell id="ULt90Xs-shfkN2D_Vu1v-138" value="" style="ellipse;whiteSpace=wrap;html=1;aspect=fixed;fillColor=#fff2cc;strokeColor=#d6b656;" vertex="1" parent="ULt90Xs-shfkN2D_Vu1v-136">
                    <mxGeometry x="14" width="10" height="10" as="geometry"/>
                </mxCell>
                <mxCell id="ULt90Xs-shfkN2D_Vu1v-139" value="" style="ellipse;whiteSpace=wrap;html=1;aspect=fixed;fillColor=#fff2cc;strokeColor=#d6b656;" vertex="1" parent="ULt90Xs-shfkN2D_Vu1v-136">
                    <mxGeometry x="28" width="10" height="10" as="geometry"/>
                </mxCell>
                <mxCell id="ULt90Xs-shfkN2D_Vu1v-140" value="" style="ellipse;whiteSpace=wrap;html=1;aspect=fixed;fillColor=#fff2cc;strokeColor=#d6b656;" vertex="1" parent="ULt90Xs-shfkN2D_Vu1v-136">
                    <mxGeometry y="14" width="10" height="10" as="geometry"/>
                </mxCell>
                <mxCell id="ULt90Xs-shfkN2D_Vu1v-141" value="" style="ellipse;whiteSpace=wrap;html=1;aspect=fixed;fillColor=#fff2cc;strokeColor=#d6b656;" vertex="1" parent="ULt90Xs-shfkN2D_Vu1v-136">
                    <mxGeometry x="14" y="14" width="10" height="10" as="geometry"/>
                </mxCell>
                <mxCell id="ULt90Xs-shfkN2D_Vu1v-142" value="" style="ellipse;whiteSpace=wrap;html=1;aspect=fixed;fillColor=#fff2cc;strokeColor=#d6b656;" vertex="1" parent="ULt90Xs-shfkN2D_Vu1v-136">
                    <mxGeometry x="28" y="14" width="10" height="10" as="geometry"/>
                </mxCell>
                <mxCell id="ULt90Xs-shfkN2D_Vu1v-143" value="" style="ellipse;whiteSpace=wrap;html=1;aspect=fixed;fillColor=#fff2cc;strokeColor=#d6b656;" vertex="1" parent="ULt90Xs-shfkN2D_Vu1v-136">
                    <mxGeometry y="28" width="10" height="10" as="geometry"/>
                </mxCell>
                <mxCell id="ULt90Xs-shfkN2D_Vu1v-144" value="" style="ellipse;whiteSpace=wrap;html=1;aspect=fixed;fillColor=#fff2cc;strokeColor=#d6b656;" vertex="1" parent="ULt90Xs-shfkN2D_Vu1v-136">
                    <mxGeometry x="14" y="28" width="10" height="10" as="geometry"/>
                </mxCell>
                <mxCell id="ULt90Xs-shfkN2D_Vu1v-145" value="" style="ellipse;whiteSpace=wrap;html=1;aspect=fixed;fillColor=#fff2cc;strokeColor=#d6b656;" vertex="1" parent="ULt90Xs-shfkN2D_Vu1v-136">
                    <mxGeometry x="28" y="28" width="10" height="10" as="geometry"/>
                </mxCell>
                <mxCell id="ULt90Xs-shfkN2D_Vu1v-146" style="edgeStyle=none;html=1;entryX=0.987;entryY=0.286;entryDx=0;entryDy=0;entryPerimeter=0;" edge="1" source="ULt90Xs-shfkN2D_Vu1v-155" target="ULt90Xs-shfkN2D_Vu1v-105" parent="1">
                    <mxGeometry relative="1" as="geometry">
                        <Array as="points">
                            <mxPoint x="1506" y="303"/>
                        </Array>
                    </mxGeometry>
                </mxCell>
                <mxCell id="ULt90Xs-shfkN2D_Vu1v-147" style="edgeStyle=none;html=1;entryX=0.979;entryY=0.55;entryDx=0;entryDy=0;entryPerimeter=0;exitX=0.5;exitY=1;exitDx=0;exitDy=0;" edge="1" source="ULt90Xs-shfkN2D_Vu1v-157" target="ULt90Xs-shfkN2D_Vu1v-105" parent="1">
                    <mxGeometry relative="1" as="geometry">
                        <mxPoint x="1586" y="360" as="sourcePoint"/>
                        <Array as="points">
                            <mxPoint x="1596" y="324"/>
                        </Array>
                    </mxGeometry>
                </mxCell>
                <mxCell id="ULt90Xs-shfkN2D_Vu1v-148" style="edgeStyle=none;html=1;entryX=-0.007;entryY=0.272;entryDx=0;entryDy=0;entryPerimeter=0;" edge="1" source="ULt90Xs-shfkN2D_Vu1v-153" target="ULt90Xs-shfkN2D_Vu1v-105" parent="1">
                    <mxGeometry relative="1" as="geometry">
                        <Array as="points">
                            <mxPoint x="1355" y="302"/>
                        </Array>
                    </mxGeometry>
                </mxCell>
                <mxCell id="ULt90Xs-shfkN2D_Vu1v-149" style="edgeStyle=orthogonalEdgeStyle;html=1;entryX=-0.007;entryY=0.564;entryDx=0;entryDy=0;entryPerimeter=0;" edge="1" source="ULt90Xs-shfkN2D_Vu1v-151" target="ULt90Xs-shfkN2D_Vu1v-105" parent="1">
                    <mxGeometry relative="1" as="geometry">
                        <Array as="points">
                            <mxPoint x="1275" y="325"/>
                        </Array>
                    </mxGeometry>
                </mxCell>
                <mxCell id="ULt90Xs-shfkN2D_Vu1v-150" value="" style="edgeStyle=orthogonalEdgeStyle;html=1;entryX=0.5;entryY=0;entryDx=0;entryDy=0;" edge="1" source="ULt90Xs-shfkN2D_Vu1v-144" target="ULt90Xs-shfkN2D_Vu1v-151" parent="1">
                    <mxGeometry relative="1" as="geometry">
                        <mxPoint x="1275" y="98" as="sourcePoint"/>
                        <mxPoint x="1398" y="325" as="targetPoint"/>
                        <Array as="points"/>
                    </mxGeometry>
                </mxCell>
                <mxCell id="ULt90Xs-shfkN2D_Vu1v-151" value="Connection Pool" style="rounded=1;whiteSpace=wrap;html=1;textDirection=vertical-lr;fillColor=#d5e8d4;strokeColor=#82b366;" vertex="1" parent="1">
                    <mxGeometry x="1260" y="150" width="30" height="120" as="geometry"/>
                </mxCell>
                <mxCell id="ULt90Xs-shfkN2D_Vu1v-152" value="" style="edgeStyle=none;html=1;entryX=0.5;entryY=0;entryDx=0;entryDy=0;" edge="1" source="ULt90Xs-shfkN2D_Vu1v-134" target="ULt90Xs-shfkN2D_Vu1v-153" parent="1">
                    <mxGeometry relative="1" as="geometry">
                        <mxPoint x="1355" y="98" as="sourcePoint"/>
                        <mxPoint x="1398" y="302" as="targetPoint"/>
                        <Array as="points"/>
                    </mxGeometry>
                </mxCell>
                <mxCell id="ULt90Xs-shfkN2D_Vu1v-153" value="Connection Pool" style="rounded=1;whiteSpace=wrap;html=1;textDirection=vertical-lr;fillColor=#f8cecc;strokeColor=#b85450;" vertex="1" parent="1">
                    <mxGeometry x="1340" y="150" width="30" height="120" as="geometry"/>
                </mxCell>
                <mxCell id="ULt90Xs-shfkN2D_Vu1v-154" value="" style="edgeStyle=none;html=1;entryX=0.5;entryY=0;entryDx=0;entryDy=0;" edge="1" source="ULt90Xs-shfkN2D_Vu1v-124" target="ULt90Xs-shfkN2D_Vu1v-155" parent="1">
                    <mxGeometry relative="1" as="geometry">
                        <mxPoint x="1506" y="98" as="sourcePoint"/>
                        <mxPoint x="1463" y="303" as="targetPoint"/>
                        <Array as="points"/>
                    </mxGeometry>
                </mxCell>
                <mxCell id="ULt90Xs-shfkN2D_Vu1v-155" value="Connection Pool" style="rounded=1;whiteSpace=wrap;html=1;textDirection=vertical-lr;fillColor=#d5e8d4;strokeColor=#82b366;" vertex="1" parent="1">
                    <mxGeometry x="1487" y="150" width="30" height="120" as="geometry"/>
                </mxCell>
                <mxCell id="ULt90Xs-shfkN2D_Vu1v-156" value="" style="html=1;entryX=0.5;entryY=0;entryDx=0;entryDy=0;" edge="1" source="ULt90Xs-shfkN2D_Vu1v-114" target="ULt90Xs-shfkN2D_Vu1v-157" parent="1">
                    <mxGeometry relative="1" as="geometry">
                        <mxPoint x="1595" y="98" as="sourcePoint"/>
                        <mxPoint x="1463" y="324" as="targetPoint"/>
                    </mxGeometry>
                </mxCell>
                <mxCell id="ULt90Xs-shfkN2D_Vu1v-157" value="Connection Pool" style="rounded=1;whiteSpace=wrap;html=1;textDirection=vertical-lr;fillColor=#d5e8d4;strokeColor=#82b366;" vertex="1" parent="1">
                    <mxGeometry x="1580" y="150" width="30" height="120" as="geometry"/>
                </mxCell>
                <mxCell id="ULt90Xs-shfkN2D_Vu1v-158" value="" style="html=1;shadow=0;dashed=0;align=center;verticalAlign=middle;shape=mxgraph.arrows2.arrow;dy=0.29;dx=38.73;notch=0;fillColor=#f5f5f5;strokeColor=#666666;fontColor=#333333;" vertex="1" parent="1">
                    <mxGeometry x="630" y="180" width="60" height="70" as="geometry"/>
                </mxCell>
                <mxCell id="ULt90Xs-shfkN2D_Vu1v-160" value="" style="html=1;shadow=0;dashed=0;align=center;verticalAlign=middle;shape=mxgraph.arrows2.arrow;dy=0.29;dx=38.73;notch=0;fillColor=#f5f5f5;strokeColor=#666666;fontColor=#333333;" vertex="1" parent="1">
                    <mxGeometry x="1146" y="180" width="60" height="70" as="geometry"/>
                </mxCell>
            </root>
        </mxGraphModel>
    </diagram>
    <diagram id="GzqVqK61pJFQQZtY3rAY" name="Circuit Breaker">
        <mxGraphModel dx="2006" dy="801" grid="1" gridSize="10" guides="1" tooltips="1" connect="1" arrows="1" fold="1" page="1" pageScale="1" pageWidth="850" pageHeight="1100" math="0" shadow="0">
            <root>
                <mxCell id="0"/>
                <mxCell id="1" parent="0"/>
                <mxCell id="9LStTmbP1lzfRi5glFLP-1" value="API Gateway" style="rounded=1;whiteSpace=wrap;html=1;fillColor=#000000;fontColor=#FFFFFF;" vertex="1" parent="1">
                    <mxGeometry x="90" y="250" width="120" height="60" as="geometry"/>
                </mxCell>
                <mxCell id="9LStTmbP1lzfRi5glFLP-2" value="Microservice" style="rounded=1;whiteSpace=wrap;html=1;fillColor=#000000;fontColor=#FFFFFF;" vertex="1" parent="1">
                    <mxGeometry x="750" y="250" width="120" height="60" as="geometry"/>
                </mxCell>
                <mxCell id="9LStTmbP1lzfRi5glFLP-3" value="" style="endArrow=open;html=1;endFill=0;strokeWidth=2;strokeColor=#FF0000;" edge="1" parent="1" source="9LStTmbP1lzfRi5glFLP-7">
                    <mxGeometry width="50" height="50" relative="1" as="geometry">
                        <mxPoint x="350" y="200" as="sourcePoint"/>
                        <mxPoint x="640" y="200" as="targetPoint"/>
                    </mxGeometry>
                </mxCell>
                <mxCell id="9LStTmbP1lzfRi5glFLP-4" value="" style="endArrow=open;html=1;endFill=0;dashed=1;strokeWidth=2;strokeColor=#FF0000;" edge="1" parent="1">
                    <mxGeometry width="50" height="50" relative="1" as="geometry">
                        <mxPoint x="640" y="222" as="sourcePoint"/>
                        <mxPoint x="350" y="222" as="targetPoint"/>
                    </mxGeometry>
                </mxCell>
                <mxCell id="9LStTmbP1lzfRi5glFLP-6" value="STATUS CODE 500" style="edgeLabel;html=1;align=center;verticalAlign=middle;resizable=0;points=[];fontColor=#FF0000;labelBackgroundColor=#FFCCCC;" vertex="1" connectable="0" parent="9LStTmbP1lzfRi5glFLP-4">
                    <mxGeometry x="-0.2592" y="-1" relative="1" as="geometry">
                        <mxPoint x="-33" as="offset"/>
                    </mxGeometry>
                </mxCell>
                <mxCell id="9LStTmbP1lzfRi5glFLP-8" value="" style="endArrow=open;html=1;endFill=0;strokeWidth=2;strokeColor=#FF0000;" edge="1" parent="1" target="9LStTmbP1lzfRi5glFLP-7">
                    <mxGeometry width="50" height="50" relative="1" as="geometry">
                        <mxPoint x="350" y="200" as="sourcePoint"/>
                        <mxPoint x="640" y="200" as="targetPoint"/>
                    </mxGeometry>
                </mxCell>
                <mxCell id="9LStTmbP1lzfRi5glFLP-7" value="1" style="ellipse;whiteSpace=wrap;html=1;aspect=fixed;fillColor=#fad9d5;strokeColor=#ae4132;fontColor=#FF0000;" vertex="1" parent="1">
                    <mxGeometry x="350" y="190" width="20" height="20" as="geometry"/>
                </mxCell>
                <mxCell id="9LStTmbP1lzfRi5glFLP-9" value="" style="endArrow=open;html=1;endFill=0;strokeWidth=2;strokeColor=#FF0000;" edge="1" source="9LStTmbP1lzfRi5glFLP-13" parent="1">
                    <mxGeometry width="50" height="50" relative="1" as="geometry">
                        <mxPoint x="350" y="250" as="sourcePoint"/>
                        <mxPoint x="640" y="250" as="targetPoint"/>
                    </mxGeometry>
                </mxCell>
                <mxCell id="9LStTmbP1lzfRi5glFLP-10" value="" style="endArrow=open;html=1;endFill=0;dashed=1;strokeWidth=2;strokeColor=#FF0000;" edge="1" parent="1">
                    <mxGeometry width="50" height="50" relative="1" as="geometry">
                        <mxPoint x="640" y="272" as="sourcePoint"/>
                        <mxPoint x="350" y="272" as="targetPoint"/>
                    </mxGeometry>
                </mxCell>
                <mxCell id="9LStTmbP1lzfRi5glFLP-11" value="STATUS CODE 429" style="edgeLabel;html=1;align=center;verticalAlign=middle;resizable=0;points=[];fontColor=#FF0000;labelBackgroundColor=#FFCCCC;" vertex="1" connectable="0" parent="9LStTmbP1lzfRi5glFLP-10">
                    <mxGeometry x="-0.2592" y="-1" relative="1" as="geometry">
                        <mxPoint x="-33" as="offset"/>
                    </mxGeometry>
                </mxCell>
                <mxCell id="9LStTmbP1lzfRi5glFLP-12" value="" style="endArrow=open;html=1;endFill=0;strokeWidth=2;strokeColor=#FF0000;" edge="1" target="9LStTmbP1lzfRi5glFLP-13" parent="1">
                    <mxGeometry width="50" height="50" relative="1" as="geometry">
                        <mxPoint x="350" y="250" as="sourcePoint"/>
                        <mxPoint x="640" y="250" as="targetPoint"/>
                    </mxGeometry>
                </mxCell>
                <mxCell id="9LStTmbP1lzfRi5glFLP-13" value="1" style="ellipse;whiteSpace=wrap;html=1;aspect=fixed;fillColor=#fad9d5;strokeColor=#ae4132;fontColor=#FF0000;" vertex="1" parent="1">
                    <mxGeometry x="350" y="240" width="20" height="20" as="geometry"/>
                </mxCell>
                <mxCell id="9LStTmbP1lzfRi5glFLP-14" value="" style="endArrow=open;html=1;endFill=0;strokeWidth=2;strokeColor=#FF0000;" edge="1" source="9LStTmbP1lzfRi5glFLP-18" parent="1">
                    <mxGeometry width="50" height="50" relative="1" as="geometry">
                        <mxPoint x="350" y="300" as="sourcePoint"/>
                        <mxPoint x="640" y="300" as="targetPoint"/>
                    </mxGeometry>
                </mxCell>
                <mxCell id="9LStTmbP1lzfRi5glFLP-15" value="" style="endArrow=open;html=1;endFill=0;dashed=1;strokeWidth=2;strokeColor=#FF0000;" edge="1" parent="1">
                    <mxGeometry width="50" height="50" relative="1" as="geometry">
                        <mxPoint x="640" y="322" as="sourcePoint"/>
                        <mxPoint x="350" y="322" as="targetPoint"/>
                    </mxGeometry>
                </mxCell>
                <mxCell id="9LStTmbP1lzfRi5glFLP-16" value="STATUS CODE 408" style="edgeLabel;html=1;align=center;verticalAlign=middle;resizable=0;points=[];fontColor=#FF0000;labelBackgroundColor=#FFCCCC;" vertex="1" connectable="0" parent="9LStTmbP1lzfRi5glFLP-15">
                    <mxGeometry x="-0.2592" y="-1" relative="1" as="geometry">
                        <mxPoint x="-33" as="offset"/>
                    </mxGeometry>
                </mxCell>
                <mxCell id="9LStTmbP1lzfRi5glFLP-17" value="" style="endArrow=open;html=1;endFill=0;strokeWidth=2;strokeColor=#FF0000;" edge="1" target="9LStTmbP1lzfRi5glFLP-18" parent="1">
                    <mxGeometry width="50" height="50" relative="1" as="geometry">
                        <mxPoint x="350" y="300" as="sourcePoint"/>
                        <mxPoint x="640" y="300" as="targetPoint"/>
                    </mxGeometry>
                </mxCell>
                <mxCell id="9LStTmbP1lzfRi5glFLP-18" value="1" style="ellipse;whiteSpace=wrap;html=1;aspect=fixed;fillColor=#fad9d5;strokeColor=#ae4132;fontColor=#FF0000;" vertex="1" parent="1">
                    <mxGeometry x="350" y="290" width="20" height="20" as="geometry"/>
                </mxCell>
                <mxCell id="9LStTmbP1lzfRi5glFLP-19" value="" style="endArrow=open;html=1;endFill=0;strokeWidth=2;strokeColor=#FF0000;" edge="1" source="9LStTmbP1lzfRi5glFLP-23" parent="1">
                    <mxGeometry width="50" height="50" relative="1" as="geometry">
                        <mxPoint x="350" y="340" as="sourcePoint"/>
                        <mxPoint x="640" y="340" as="targetPoint"/>
                    </mxGeometry>
                </mxCell>
                <mxCell id="9LStTmbP1lzfRi5glFLP-20" value="" style="endArrow=open;html=1;endFill=0;dashed=1;strokeWidth=2;strokeColor=#FF0000;" edge="1" parent="1">
                    <mxGeometry width="50" height="50" relative="1" as="geometry">
                        <mxPoint x="640" y="362" as="sourcePoint"/>
                        <mxPoint x="350" y="362" as="targetPoint"/>
                    </mxGeometry>
                </mxCell>
                <mxCell id="9LStTmbP1lzfRi5glFLP-21" value="STATUS CODE 500" style="edgeLabel;html=1;align=center;verticalAlign=middle;resizable=0;points=[];fontColor=#FF0000;labelBackgroundColor=#FFCCCC;" vertex="1" connectable="0" parent="9LStTmbP1lzfRi5glFLP-20">
                    <mxGeometry x="-0.2592" y="-1" relative="1" as="geometry">
                        <mxPoint x="-33" as="offset"/>
                    </mxGeometry>
                </mxCell>
                <mxCell id="9LStTmbP1lzfRi5glFLP-22" value="" style="endArrow=open;html=1;endFill=0;strokeWidth=2;strokeColor=#FF0000;" edge="1" target="9LStTmbP1lzfRi5glFLP-23" parent="1">
                    <mxGeometry width="50" height="50" relative="1" as="geometry">
                        <mxPoint x="350" y="340" as="sourcePoint"/>
                        <mxPoint x="640" y="340" as="targetPoint"/>
                    </mxGeometry>
                </mxCell>
                <mxCell id="9LStTmbP1lzfRi5glFLP-23" value="1" style="ellipse;whiteSpace=wrap;html=1;aspect=fixed;fillColor=#fad9d5;strokeColor=#ae4132;fontColor=#FF0000;" vertex="1" parent="1">
                    <mxGeometry x="350" y="330" width="20" height="20" as="geometry"/>
                </mxCell>
                <mxCell id="9LStTmbP1lzfRi5glFLP-24" value="" style="endArrow=none;html=1;strokeWidth=2;" edge="1" parent="1">
                    <mxGeometry width="50" height="50" relative="1" as="geometry">
                        <mxPoint x="330" y="390" as="sourcePoint"/>
                        <mxPoint x="330" y="180" as="targetPoint"/>
                    </mxGeometry>
                </mxCell>
                <mxCell id="9LStTmbP1lzfRi5glFLP-25" value="" style="endArrow=none;html=1;strokeWidth=2;" edge="1" parent="1">
                    <mxGeometry width="50" height="50" relative="1" as="geometry">
                        <mxPoint x="660" y="390" as="sourcePoint"/>
                        <mxPoint x="660" y="180" as="targetPoint"/>
                    </mxGeometry>
                </mxCell>
                <mxCell id="9LStTmbP1lzfRi5glFLP-26" value="" style="shape=flexArrow;endArrow=classic;html=1;width=32.142857142857146;endSize=9.171428571428573;fillColor=#bac8d3;strokeColor=#23445d;" edge="1" parent="1">
                    <mxGeometry width="50" height="50" relative="1" as="geometry">
                        <mxPoint x="250" y="279.64" as="sourcePoint"/>
                        <mxPoint x="290" y="279.64" as="targetPoint"/>
                    </mxGeometry>
                </mxCell>
                <mxCell id="9LStTmbP1lzfRi5glFLP-28" value="" style="shape=flexArrow;endArrow=classic;html=1;width=32.142857142857146;endSize=9.171428571428573;fillColor=#bac8d3;strokeColor=#23445d;" edge="1" parent="1">
                    <mxGeometry width="50" height="50" relative="1" as="geometry">
                        <mxPoint x="690" y="279.38" as="sourcePoint"/>
                        <mxPoint x="730" y="279.38" as="targetPoint"/>
                    </mxGeometry>
                </mxCell>
                <mxCell id="9LStTmbP1lzfRi5glFLP-30" value="" style="shape=flexArrow;endArrow=classic;html=1;width=32.142857142857146;endSize=9.171428571428573;fillColor=#bac8d3;strokeColor=#23445d;" edge="1" parent="1">
                    <mxGeometry width="50" height="50" relative="1" as="geometry">
                        <mxPoint x="20" y="279.69" as="sourcePoint"/>
                        <mxPoint x="60" y="279.69" as="targetPoint"/>
                    </mxGeometry>
                </mxCell>
                <mxCell id="9LStTmbP1lzfRi5glFLP-31" value="Client" style="rounded=1;whiteSpace=wrap;html=1;fillColor=#000000;fontColor=#FFFFFF;" vertex="1" parent="1">
                    <mxGeometry x="-130" y="250" width="120" height="60" as="geometry"/>
                </mxCell>
                <mxCell id="9LStTmbP1lzfRi5glFLP-33" value="Open" style="verticalLabelPosition=bottom;html=1;verticalAlign=top;align=center;strokeColor=#ae4132;fillColor=#fad9d5;shape=mxgraph.azure.azure_alert;fontColor=#FF0000;" vertex="1" parent="1">
                    <mxGeometry x="342.71" y="380" width="35.29" height="30" as="geometry"/>
                </mxCell>
                <mxCell id="9LStTmbP1lzfRi5glFLP-36" style="edgeStyle=orthogonalEdgeStyle;html=1;entryX=0.5;entryY=0;entryDx=0;entryDy=0;curved=1;dashed=1;endArrow=open;endFill=0;" edge="1" parent="1" source="9LStTmbP1lzfRi5glFLP-35" target="9LStTmbP1lzfRi5glFLP-1">
                    <mxGeometry relative="1" as="geometry"/>
                </mxCell>
                <mxCell id="9LStTmbP1lzfRi5glFLP-35" value="&lt;b&gt;Configuração da Política&lt;/b&gt;&lt;br&gt;&lt;br&gt;&lt;div&gt;Retentativas = 4&lt;br&gt;Duração = 2s&lt;br&gt;&lt;/div&gt;&lt;div&gt;Frequência de validação = 30s&lt;/div&gt;" style="text;html=1;whiteSpace=wrap;overflow=hidden;rounded=0;spacing=2;" vertex="1" parent="1">
                    <mxGeometry x="280" y="30" width="180" height="100" as="geometry"/>
                </mxCell>
                <mxCell id="9LStTmbP1lzfRi5glFLP-40" style="edgeStyle=none;html=1;fillColor=#f8cecc;strokeColor=#b85450;strokeWidth=3;" edge="1" parent="1" source="9LStTmbP1lzfRi5glFLP-37" target="9LStTmbP1lzfRi5glFLP-38">
                    <mxGeometry relative="1" as="geometry"/>
                </mxCell>
                <mxCell id="9LStTmbP1lzfRi5glFLP-49" value="Falhas alcançaram&amp;nbsp;&lt;div&gt;o limite de retentativas&lt;/div&gt;" style="edgeLabel;html=1;align=center;verticalAlign=middle;resizable=0;points=[];" vertex="1" connectable="0" parent="9LStTmbP1lzfRi5glFLP-40">
                    <mxGeometry x="-0.6322" y="-1" relative="1" as="geometry">
                        <mxPoint x="83" y="-21" as="offset"/>
                    </mxGeometry>
                </mxCell>
                <mxCell id="9LStTmbP1lzfRi5glFLP-44" style="edgeStyle=none;html=1;exitX=0.25;exitY=0;exitDx=0;exitDy=0;entryX=0.75;entryY=0;entryDx=0;entryDy=0;fillColor=#fff2cc;strokeColor=#d6b656;strokeWidth=3;" edge="1" parent="1" source="9LStTmbP1lzfRi5glFLP-37" target="9LStTmbP1lzfRi5glFLP-37">
                    <mxGeometry relative="1" as="geometry">
                        <mxPoint x="1130" y="100" as="targetPoint"/>
                        <Array as="points">
                            <mxPoint x="1130" y="210"/>
                            <mxPoint x="1190" y="210"/>
                        </Array>
                    </mxGeometry>
                </mxCell>
                <mxCell id="9LStTmbP1lzfRi5glFLP-47" value="Falhas ocorrendo&amp;nbsp;&lt;div&gt;dentro da política de retentativa&lt;/div&gt;" style="edgeLabel;html=1;align=center;verticalAlign=middle;resizable=0;points=[];" vertex="1" connectable="0" parent="9LStTmbP1lzfRi5glFLP-44">
                    <mxGeometry x="0.0761" y="2" relative="1" as="geometry">
                        <mxPoint y="-18" as="offset"/>
                    </mxGeometry>
                </mxCell>
                <mxCell id="9LStTmbP1lzfRi5glFLP-46" style="edgeStyle=none;html=1;exitX=0.75;exitY=1;exitDx=0;exitDy=0;entryX=0.25;entryY=1;entryDx=0;entryDy=0;fillColor=#d5e8d4;strokeColor=#82b366;strokeWidth=3;" edge="1" parent="1" source="9LStTmbP1lzfRi5glFLP-37" target="9LStTmbP1lzfRi5glFLP-37">
                    <mxGeometry relative="1" as="geometry">
                        <mxPoint x="1140" y="370" as="targetPoint"/>
                        <Array as="points">
                            <mxPoint x="1190" y="330"/>
                            <mxPoint x="1130" y="330"/>
                        </Array>
                    </mxGeometry>
                </mxCell>
                <mxCell id="9LStTmbP1lzfRi5glFLP-48" value="Sucesso" style="edgeLabel;html=1;align=center;verticalAlign=middle;resizable=0;points=[];" vertex="1" connectable="0" parent="9LStTmbP1lzfRi5glFLP-46">
                    <mxGeometry x="-0.0231" y="2" relative="1" as="geometry">
                        <mxPoint x="-1" y="18" as="offset"/>
                    </mxGeometry>
                </mxCell>
                <mxCell id="9LStTmbP1lzfRi5glFLP-37" value="Closed" style="rounded=1;whiteSpace=wrap;html=1;fillColor=#d5e8d4;strokeColor=#82b366;" vertex="1" parent="1">
                    <mxGeometry x="1100" y="240" width="120" height="60" as="geometry"/>
                </mxCell>
                <mxCell id="9LStTmbP1lzfRi5glFLP-42" style="edgeStyle=none;html=1;exitX=0.75;exitY=1;exitDx=0;exitDy=0;entryX=1;entryY=0.75;entryDx=0;entryDy=0;fillColor=#fff2cc;strokeColor=#d6b656;strokeWidth=3;" edge="1" parent="1" source="9LStTmbP1lzfRi5glFLP-38" target="9LStTmbP1lzfRi5glFLP-39">
                    <mxGeometry relative="1" as="geometry">
                        <Array as="points">
                            <mxPoint x="1620" y="455"/>
                        </Array>
                    </mxGeometry>
                </mxCell>
                <mxCell id="9LStTmbP1lzfRi5glFLP-52" value="Tempo limite&amp;nbsp;&lt;div&gt;alcançado&lt;/div&gt;" style="edgeLabel;html=1;align=center;verticalAlign=middle;resizable=0;points=[];" vertex="1" connectable="0" parent="9LStTmbP1lzfRi5glFLP-42">
                    <mxGeometry x="-0.758" y="2" relative="1" as="geometry">
                        <mxPoint x="38" y="2" as="offset"/>
                    </mxGeometry>
                </mxCell>
                <mxCell id="9LStTmbP1lzfRi5glFLP-50" style="edgeStyle=none;html=1;exitX=0.25;exitY=0;exitDx=0;exitDy=0;entryX=0.75;entryY=0;entryDx=0;entryDy=0;fillColor=#fff2cc;strokeColor=#d6b656;strokeWidth=3;" edge="1" parent="1" source="9LStTmbP1lzfRi5glFLP-38" target="9LStTmbP1lzfRi5glFLP-38">
                    <mxGeometry relative="1" as="geometry">
                        <mxPoint x="1609.9999999999995" y="180" as="targetPoint"/>
                        <Array as="points">
                            <mxPoint x="1560" y="210"/>
                            <mxPoint x="1620" y="210"/>
                        </Array>
                    </mxGeometry>
                </mxCell>
                <mxCell id="9LStTmbP1lzfRi5glFLP-51" value="Aguardar até o tempo limite&amp;nbsp;&lt;div&gt;para nova verificacão&lt;/div&gt;" style="edgeLabel;html=1;align=center;verticalAlign=middle;resizable=0;points=[];" vertex="1" connectable="0" parent="9LStTmbP1lzfRi5glFLP-50">
                    <mxGeometry x="-0.0637" y="1" relative="1" as="geometry">
                        <mxPoint x="4" y="-19" as="offset"/>
                    </mxGeometry>
                </mxCell>
                <mxCell id="9LStTmbP1lzfRi5glFLP-38" value="OPEN" style="rounded=1;whiteSpace=wrap;html=1;fillColor=#f8cecc;strokeColor=#b85450;" vertex="1" parent="1">
                    <mxGeometry x="1530" y="240" width="120" height="60" as="geometry"/>
                </mxCell>
                <mxCell id="9LStTmbP1lzfRi5glFLP-41" style="edgeStyle=none;html=1;exitX=1;exitY=0.25;exitDx=0;exitDy=0;entryX=0.25;entryY=1;entryDx=0;entryDy=0;fillColor=#f8cecc;strokeColor=#b85450;strokeWidth=3;" edge="1" parent="1" source="9LStTmbP1lzfRi5glFLP-39" target="9LStTmbP1lzfRi5glFLP-38">
                    <mxGeometry relative="1" as="geometry">
                        <Array as="points">
                            <mxPoint x="1560" y="425"/>
                        </Array>
                    </mxGeometry>
                </mxCell>
                <mxCell id="9LStTmbP1lzfRi5glFLP-53" value="Falha&amp;nbsp;&lt;div&gt;na verificação&lt;/div&gt;" style="edgeLabel;html=1;align=center;verticalAlign=middle;resizable=0;points=[];" vertex="1" connectable="0" parent="9LStTmbP1lzfRi5glFLP-41">
                    <mxGeometry x="0.5945" y="1" relative="1" as="geometry">
                        <mxPoint x="-39" y="-6" as="offset"/>
                    </mxGeometry>
                </mxCell>
                <mxCell id="9LStTmbP1lzfRi5glFLP-43" style="edgeStyle=none;html=1;entryX=0;entryY=0.5;entryDx=0;entryDy=0;fillColor=#d5e8d4;strokeColor=#82b366;strokeWidth=3;" edge="1" parent="1" source="9LStTmbP1lzfRi5glFLP-39" target="9LStTmbP1lzfRi5glFLP-37">
                    <mxGeometry relative="1" as="geometry">
                        <Array as="points">
                            <mxPoint x="1040" y="440"/>
                            <mxPoint x="1040" y="270"/>
                        </Array>
                    </mxGeometry>
                </mxCell>
                <mxCell id="9LStTmbP1lzfRi5glFLP-54" value="Sucesso" style="edgeLabel;html=1;align=center;verticalAlign=middle;resizable=0;points=[];" vertex="1" connectable="0" parent="9LStTmbP1lzfRi5glFLP-43">
                    <mxGeometry x="-0.5298" y="2" relative="1" as="geometry">
                        <mxPoint y="18" as="offset"/>
                    </mxGeometry>
                </mxCell>
                <mxCell id="9LStTmbP1lzfRi5glFLP-39" value="HALF-OPEN" style="rounded=1;whiteSpace=wrap;html=1;fillColor=#fff2cc;strokeColor=#d6b656;" vertex="1" parent="1">
                    <mxGeometry x="1340" y="410" width="120" height="60" as="geometry"/>
                </mxCell>
            </root>
        </mxGraphModel>
    </diagram>
    <diagram id="d08JYFG-_fGWZPe5etzV" name="Policy-Based Routing">
        <mxGraphModel dx="963" dy="1768" grid="1" gridSize="10" guides="1" tooltips="1" connect="1" arrows="1" fold="1" page="1" pageScale="1" pageWidth="850" pageHeight="1100" math="0" shadow="0">
            <root>
                <mxCell id="0"/>
                <mxCell id="1" parent="0"/>
                <mxCell id="u_kPKv_uOyALwz_HePbq-1" value="Availability Zone" style="fillColor=none;strokeColor=#147EBA;dashed=1;verticalAlign=top;fontStyle=0;fontColor=#147EBA;whiteSpace=wrap;html=1;" vertex="1" parent="1">
                    <mxGeometry x="400" y="-60" width="350" height="470" as="geometry"/>
                </mxCell>
                <mxCell id="u_kPKv_uOyALwz_HePbq-2" value="VPC" style="sketch=0;outlineConnect=0;gradientColor=none;html=1;whiteSpace=wrap;fontSize=12;fontStyle=0;shape=mxgraph.aws4.group;grIcon=mxgraph.aws4.group_vpc;strokeColor=#879196;fillColor=none;verticalAlign=top;align=left;spacingLeft=30;fontColor=#879196;dashed=0;" vertex="1" parent="1">
                    <mxGeometry x="375" width="400" height="390" as="geometry"/>
                </mxCell>
                <mxCell id="u_kPKv_uOyALwz_HePbq-3" value="Public subnet" style="points=[[0,0],[0.25,0],[0.5,0],[0.75,0],[1,0],[1,0.25],[1,0.5],[1,0.75],[1,1],[0.75,1],[0.5,1],[0.25,1],[0,1],[0,0.75],[0,0.5],[0,0.25]];outlineConnect=0;gradientColor=none;html=1;whiteSpace=wrap;fontSize=12;fontStyle=0;container=1;pointerEvents=0;collapsible=0;recursiveResize=0;shape=mxgraph.aws4.group;grIcon=mxgraph.aws4.group_security_group;grStroke=0;strokeColor=#7AA116;fillColor=#F2F6E8;verticalAlign=top;align=left;spacingLeft=30;fontColor=#248814;dashed=0;" vertex="1" parent="1">
                    <mxGeometry x="420" y="80" width="310" height="130" as="geometry"/>
                </mxCell>
                <mxCell id="u_kPKv_uOyALwz_HePbq-4" value="NAT&lt;div&gt;Gatway&lt;/div&gt;" style="outlineConnect=0;dashed=0;verticalLabelPosition=middle;verticalAlign=middle;align=left;html=1;shape=mxgraph.aws3.vpc_nat_gateway;fillColor=#F58534;gradientColor=none;aspect=fixed;labelPosition=right;" vertex="1" parent="u_kPKv_uOyALwz_HePbq-3">
                    <mxGeometry x="40" y="38.91" width="50" height="52.17" as="geometry"/>
                </mxCell>
                <mxCell id="u_kPKv_uOyALwz_HePbq-5" value="Application&lt;div&gt;Load Balancer&lt;/div&gt;" style="outlineConnect=0;dashed=0;verticalLabelPosition=middle;verticalAlign=middle;align=left;html=1;shape=mxgraph.aws3.application_load_balancer;fillColor=#F58534;gradientColor=none;aspect=fixed;labelPosition=right;" vertex="1" parent="u_kPKv_uOyALwz_HePbq-3">
                    <mxGeometry x="170" y="38.91" width="50" height="52.17" as="geometry"/>
                </mxCell>
                <mxCell id="u_kPKv_uOyALwz_HePbq-6" value="Private subnet" style="points=[[0,0],[0.25,0],[0.5,0],[0.75,0],[1,0],[1,0.25],[1,0.5],[1,0.75],[1,1],[0.75,1],[0.5,1],[0.25,1],[0,1],[0,0.75],[0,0.5],[0,0.25]];outlineConnect=0;gradientColor=none;html=1;whiteSpace=wrap;fontSize=12;fontStyle=0;container=1;pointerEvents=0;collapsible=0;recursiveResize=0;shape=mxgraph.aws4.group;grIcon=mxgraph.aws4.group_security_group;grStroke=0;strokeColor=#00A4A6;fillColor=#E6F6F7;verticalAlign=top;align=left;spacingLeft=30;fontColor=#147EBA;dashed=0;" vertex="1" parent="1">
                    <mxGeometry x="420" y="240" width="310" height="130" as="geometry"/>
                </mxCell>
                <mxCell id="u_kPKv_uOyALwz_HePbq-7" value="EC2&lt;div&gt;Node 1&lt;/div&gt;" style="sketch=0;points=[[0,0,0],[0.25,0,0],[0.5,0,0],[0.75,0,0],[1,0,0],[0,1,0],[0.25,1,0],[0.5,1,0],[0.75,1,0],[1,1,0],[0,0.25,0],[0,0.5,0],[0,0.75,0],[1,0.25,0],[1,0.5,0],[1,0.75,0]];outlineConnect=0;fontColor=#232F3E;fillColor=#ED7100;strokeColor=#ffffff;dashed=0;verticalLabelPosition=bottom;verticalAlign=top;align=center;html=1;fontSize=12;fontStyle=0;aspect=fixed;shape=mxgraph.aws4.resourceIcon;resIcon=mxgraph.aws4.ec2;" vertex="1" parent="u_kPKv_uOyALwz_HePbq-6">
                    <mxGeometry x="40" y="40" width="50" height="50" as="geometry"/>
                </mxCell>
                <mxCell id="u_kPKv_uOyALwz_HePbq-8" value="EC2&lt;div&gt;Node 2&lt;/div&gt;" style="sketch=0;points=[[0,0,0],[0.25,0,0],[0.5,0,0],[0.75,0,0],[1,0,0],[0,1,0],[0.25,1,0],[0.5,1,0],[0.75,1,0],[1,1,0],[0,0.25,0],[0,0.5,0],[0,0.75,0],[1,0.25,0],[1,0.5,0],[1,0.75,0]];outlineConnect=0;fontColor=#232F3E;fillColor=#ED7100;strokeColor=#ffffff;dashed=0;verticalLabelPosition=bottom;verticalAlign=top;align=center;html=1;fontSize=12;fontStyle=0;aspect=fixed;shape=mxgraph.aws4.resourceIcon;resIcon=mxgraph.aws4.ec2;" vertex="1" parent="u_kPKv_uOyALwz_HePbq-6">
                    <mxGeometry x="200" y="40" width="50" height="50" as="geometry"/>
                </mxCell>
                <mxCell id="u_kPKv_uOyALwz_HePbq-9" style="edgeStyle=none;html=1;" edge="1" parent="1" source="u_kPKv_uOyALwz_HePbq-10" target="u_kPKv_uOyALwz_HePbq-5">
                    <mxGeometry relative="1" as="geometry"/>
                </mxCell>
                <mxCell id="u_kPKv_uOyALwz_HePbq-10" value="Internet&lt;div&gt;Gateway&lt;/div&gt;" style="outlineConnect=0;dashed=0;verticalLabelPosition=middle;verticalAlign=middle;align=left;html=1;shape=mxgraph.aws3.internet_gateway;fillColor=#F58536;gradientColor=none;aspect=fixed;labelPosition=right;" vertex="1" parent="1">
                    <mxGeometry x="590" y="-26" width="50" height="52.17" as="geometry"/>
                </mxCell>
                <mxCell id="u_kPKv_uOyALwz_HePbq-11" style="edgeStyle=none;html=1;entryX=0.5;entryY=0;entryDx=0;entryDy=0;entryPerimeter=0;" edge="1" parent="1" source="u_kPKv_uOyALwz_HePbq-10" target="u_kPKv_uOyALwz_HePbq-4">
                    <mxGeometry relative="1" as="geometry">
                        <Array as="points">
                            <mxPoint x="615" y="40"/>
                            <mxPoint x="485" y="40"/>
                        </Array>
                    </mxGeometry>
                </mxCell>
                <mxCell id="u_kPKv_uOyALwz_HePbq-12" style="edgeStyle=none;html=1;exitX=0.5;exitY=1;exitDx=0;exitDy=0;exitPerimeter=0;entryX=0.5;entryY=0;entryDx=0;entryDy=0;entryPerimeter=0;dashed=1;endArrow=none;endFill=0;startArrow=classic;startFill=1;" edge="1" parent="1" source="u_kPKv_uOyALwz_HePbq-4" target="u_kPKv_uOyALwz_HePbq-7">
                    <mxGeometry relative="1" as="geometry"/>
                </mxCell>
                <mxCell id="u_kPKv_uOyALwz_HePbq-13" style="edgeStyle=none;html=1;entryX=0.5;entryY=0;entryDx=0;entryDy=0;entryPerimeter=0;startArrow=classic;startFill=1;endArrow=none;endFill=0;dashed=1;" edge="1" parent="1" source="u_kPKv_uOyALwz_HePbq-4" target="u_kPKv_uOyALwz_HePbq-8">
                    <mxGeometry relative="1" as="geometry">
                        <Array as="points">
                            <mxPoint x="485" y="230"/>
                            <mxPoint x="645" y="230"/>
                        </Array>
                    </mxGeometry>
                </mxCell>
                <mxCell id="u_kPKv_uOyALwz_HePbq-14" style="edgeStyle=none;html=1;entryX=0.75;entryY=0;entryDx=0;entryDy=0;entryPerimeter=0;jumpStyle=arc;" edge="1" parent="1" source="u_kPKv_uOyALwz_HePbq-5" target="u_kPKv_uOyALwz_HePbq-7">
                    <mxGeometry relative="1" as="geometry">
                        <Array as="points">
                            <mxPoint x="615" y="190"/>
                            <mxPoint x="498" y="190"/>
                        </Array>
                    </mxGeometry>
                </mxCell>
                <mxCell id="u_kPKv_uOyALwz_HePbq-15" style="edgeStyle=none;html=1;entryX=0.75;entryY=0;entryDx=0;entryDy=0;entryPerimeter=0;" edge="1" parent="1" source="u_kPKv_uOyALwz_HePbq-5" target="u_kPKv_uOyALwz_HePbq-8">
                    <mxGeometry relative="1" as="geometry">
                        <Array as="points">
                            <mxPoint x="615" y="190"/>
                            <mxPoint x="658" y="190"/>
                        </Array>
                    </mxGeometry>
                </mxCell>
                <mxCell id="u_kPKv_uOyALwz_HePbq-16" value="AWS Cloud" style="points=[[0,0],[0.25,0],[0.5,0],[0.75,0],[1,0],[1,0.25],[1,0.5],[1,0.75],[1,1],[0.75,1],[0.5,1],[0.25,1],[0,1],[0,0.75],[0,0.5],[0,0.25]];outlineConnect=0;gradientColor=none;html=1;whiteSpace=wrap;fontSize=12;fontStyle=0;container=0;pointerEvents=0;collapsible=0;recursiveResize=0;shape=mxgraph.aws4.group;grIcon=mxgraph.aws4.group_aws_cloud;strokeColor=#232F3E;fillColor=none;verticalAlign=top;align=left;spacingLeft=30;fontColor=#232F3E;dashed=0;" vertex="1" parent="1">
                    <mxGeometry x="340" y="-260" width="960" height="700" as="geometry"/>
                </mxCell>
                <mxCell id="u_kPKv_uOyALwz_HePbq-18" value="" style="outlineConnect=0;dashed=0;verticalLabelPosition=bottom;verticalAlign=top;align=center;html=1;shape=mxgraph.aws3.internet_3;fillColor=#D2D3D3;gradientColor=none;aspect=fixed;" vertex="1" parent="1">
                    <mxGeometry x="1065" y="-340" width="50" height="33.96" as="geometry"/>
                </mxCell>
                <mxCell id="u_kPKv_uOyALwz_HePbq-37" value="Route53" style="sketch=0;points=[[0,0,0],[0.25,0,0],[0.5,0,0],[0.75,0,0],[1,0,0],[0,1,0],[0.25,1,0],[0.5,1,0],[0.75,1,0],[1,1,0],[0,0.25,0],[0,0.5,0],[0,0.75,0],[1,0.25,0],[1,0.5,0],[1,0.75,0]];outlineConnect=0;fontColor=#232F3E;fillColor=#8C4FFF;strokeColor=#ffffff;dashed=0;verticalLabelPosition=middle;verticalAlign=middle;align=left;html=1;fontSize=12;fontStyle=0;aspect=fixed;shape=mxgraph.aws4.resourceIcon;resIcon=mxgraph.aws4.route_53;labelPosition=right;" vertex="1" parent="1">
                    <mxGeometry x="795" y="-230" width="50" height="50" as="geometry"/>
                </mxCell>
                <mxCell id="u_kPKv_uOyALwz_HePbq-20" value="Region - sa-east-1" style="points=[[0,0],[0.25,0],[0.5,0],[0.75,0],[1,0],[1,0.25],[1,0.5],[1,0.75],[1,1],[0.75,1],[0.5,1],[0.25,1],[0,1],[0,0.75],[0,0.5],[0,0.25]];outlineConnect=0;gradientColor=none;html=1;whiteSpace=wrap;fontSize=12;fontStyle=0;container=1;pointerEvents=0;collapsible=0;recursiveResize=0;shape=mxgraph.aws4.group;grIcon=mxgraph.aws4.group_region;strokeColor=#00A4A6;fillColor=none;verticalAlign=top;align=left;spacingLeft=30;fontColor=#147EBA;dashed=1;" vertex="1" parent="1">
                    <mxGeometry x="360" y="-103.83" width="440" height="533.83" as="geometry"/>
                </mxCell>
                <mxCell id="u_kPKv_uOyALwz_HePbq-21" value="Availability Zone" style="fillColor=none;strokeColor=#147EBA;dashed=1;verticalAlign=top;fontStyle=0;fontColor=#147EBA;whiteSpace=wrap;html=1;" vertex="1" parent="1">
                    <mxGeometry x="875" y="-60" width="350" height="470" as="geometry"/>
                </mxCell>
                <mxCell id="u_kPKv_uOyALwz_HePbq-22" value="VPC" style="sketch=0;outlineConnect=0;gradientColor=none;html=1;whiteSpace=wrap;fontSize=12;fontStyle=0;shape=mxgraph.aws4.group;grIcon=mxgraph.aws4.group_vpc;strokeColor=#879196;fillColor=none;verticalAlign=top;align=left;spacingLeft=30;fontColor=#879196;dashed=0;" vertex="1" parent="1">
                    <mxGeometry x="850" width="400" height="390" as="geometry"/>
                </mxCell>
                <mxCell id="u_kPKv_uOyALwz_HePbq-23" value="Public subnet" style="points=[[0,0],[0.25,0],[0.5,0],[0.75,0],[1,0],[1,0.25],[1,0.5],[1,0.75],[1,1],[0.75,1],[0.5,1],[0.25,1],[0,1],[0,0.75],[0,0.5],[0,0.25]];outlineConnect=0;gradientColor=none;html=1;whiteSpace=wrap;fontSize=12;fontStyle=0;container=1;pointerEvents=0;collapsible=0;recursiveResize=0;shape=mxgraph.aws4.group;grIcon=mxgraph.aws4.group_security_group;grStroke=0;strokeColor=#7AA116;fillColor=#F2F6E8;verticalAlign=top;align=left;spacingLeft=30;fontColor=#248814;dashed=0;" vertex="1" parent="1">
                    <mxGeometry x="895" y="80" width="310" height="130" as="geometry"/>
                </mxCell>
                <mxCell id="u_kPKv_uOyALwz_HePbq-24" value="NAT&lt;div&gt;Gatway&lt;/div&gt;" style="outlineConnect=0;dashed=0;verticalLabelPosition=middle;verticalAlign=middle;align=left;html=1;shape=mxgraph.aws3.vpc_nat_gateway;fillColor=#F58534;gradientColor=none;aspect=fixed;labelPosition=right;" vertex="1" parent="u_kPKv_uOyALwz_HePbq-23">
                    <mxGeometry x="40" y="38.91" width="50" height="52.17" as="geometry"/>
                </mxCell>
                <mxCell id="u_kPKv_uOyALwz_HePbq-25" value="Application&lt;div&gt;Load Balancer&lt;/div&gt;" style="outlineConnect=0;dashed=0;verticalLabelPosition=middle;verticalAlign=middle;align=left;html=1;shape=mxgraph.aws3.application_load_balancer;fillColor=#F58534;gradientColor=none;aspect=fixed;labelPosition=right;" vertex="1" parent="u_kPKv_uOyALwz_HePbq-23">
                    <mxGeometry x="170" y="38.91" width="50" height="52.17" as="geometry"/>
                </mxCell>
                <mxCell id="u_kPKv_uOyALwz_HePbq-26" value="Private subnet" style="points=[[0,0],[0.25,0],[0.5,0],[0.75,0],[1,0],[1,0.25],[1,0.5],[1,0.75],[1,1],[0.75,1],[0.5,1],[0.25,1],[0,1],[0,0.75],[0,0.5],[0,0.25]];outlineConnect=0;gradientColor=none;html=1;whiteSpace=wrap;fontSize=12;fontStyle=0;container=1;pointerEvents=0;collapsible=0;recursiveResize=0;shape=mxgraph.aws4.group;grIcon=mxgraph.aws4.group_security_group;grStroke=0;strokeColor=#00A4A6;fillColor=#E6F6F7;verticalAlign=top;align=left;spacingLeft=30;fontColor=#147EBA;dashed=0;" vertex="1" parent="1">
                    <mxGeometry x="895" y="240" width="310" height="130" as="geometry"/>
                </mxCell>
                <mxCell id="u_kPKv_uOyALwz_HePbq-27" value="EC2&lt;div&gt;Node 1&lt;/div&gt;" style="sketch=0;points=[[0,0,0],[0.25,0,0],[0.5,0,0],[0.75,0,0],[1,0,0],[0,1,0],[0.25,1,0],[0.5,1,0],[0.75,1,0],[1,1,0],[0,0.25,0],[0,0.5,0],[0,0.75,0],[1,0.25,0],[1,0.5,0],[1,0.75,0]];outlineConnect=0;fontColor=#232F3E;fillColor=#ED7100;strokeColor=#ffffff;dashed=0;verticalLabelPosition=bottom;verticalAlign=top;align=center;html=1;fontSize=12;fontStyle=0;aspect=fixed;shape=mxgraph.aws4.resourceIcon;resIcon=mxgraph.aws4.ec2;" vertex="1" parent="u_kPKv_uOyALwz_HePbq-26">
                    <mxGeometry x="40" y="40" width="50" height="50" as="geometry"/>
                </mxCell>
                <mxCell id="u_kPKv_uOyALwz_HePbq-28" value="EC2&lt;div&gt;Node 2&lt;/div&gt;" style="sketch=0;points=[[0,0,0],[0.25,0,0],[0.5,0,0],[0.75,0,0],[1,0,0],[0,1,0],[0.25,1,0],[0.5,1,0],[0.75,1,0],[1,1,0],[0,0.25,0],[0,0.5,0],[0,0.75,0],[1,0.25,0],[1,0.5,0],[1,0.75,0]];outlineConnect=0;fontColor=#232F3E;fillColor=#ED7100;strokeColor=#ffffff;dashed=0;verticalLabelPosition=bottom;verticalAlign=top;align=center;html=1;fontSize=12;fontStyle=0;aspect=fixed;shape=mxgraph.aws4.resourceIcon;resIcon=mxgraph.aws4.ec2;" vertex="1" parent="u_kPKv_uOyALwz_HePbq-26">
                    <mxGeometry x="200" y="40" width="50" height="50" as="geometry"/>
                </mxCell>
                <mxCell id="u_kPKv_uOyALwz_HePbq-29" style="edgeStyle=none;html=1;" edge="1" source="u_kPKv_uOyALwz_HePbq-30" target="u_kPKv_uOyALwz_HePbq-25" parent="1">
                    <mxGeometry relative="1" as="geometry"/>
                </mxCell>
                <mxCell id="u_kPKv_uOyALwz_HePbq-38" style="edgeStyle=none;html=1;exitX=0.5;exitY=0;exitDx=0;exitDy=0;exitPerimeter=0;" edge="1" parent="1" source="u_kPKv_uOyALwz_HePbq-30" target="u_kPKv_uOyALwz_HePbq-18">
                    <mxGeometry relative="1" as="geometry"/>
                </mxCell>
                <mxCell id="u_kPKv_uOyALwz_HePbq-30" value="Internet&lt;div&gt;Gateway&lt;/div&gt;" style="outlineConnect=0;dashed=0;verticalLabelPosition=middle;verticalAlign=middle;align=left;html=1;shape=mxgraph.aws3.internet_gateway;fillColor=#F58536;gradientColor=none;aspect=fixed;labelPosition=right;" vertex="1" parent="1">
                    <mxGeometry x="1065" y="-26" width="50" height="52.17" as="geometry"/>
                </mxCell>
                <mxCell id="u_kPKv_uOyALwz_HePbq-31" style="edgeStyle=none;html=1;entryX=0.5;entryY=0;entryDx=0;entryDy=0;entryPerimeter=0;" edge="1" source="u_kPKv_uOyALwz_HePbq-30" target="u_kPKv_uOyALwz_HePbq-24" parent="1">
                    <mxGeometry relative="1" as="geometry">
                        <Array as="points">
                            <mxPoint x="1090" y="40"/>
                            <mxPoint x="960" y="40"/>
                        </Array>
                    </mxGeometry>
                </mxCell>
                <mxCell id="u_kPKv_uOyALwz_HePbq-32" style="edgeStyle=none;html=1;exitX=0.5;exitY=1;exitDx=0;exitDy=0;exitPerimeter=0;entryX=0.5;entryY=0;entryDx=0;entryDy=0;entryPerimeter=0;dashed=1;endArrow=none;endFill=0;startArrow=classic;startFill=1;" edge="1" source="u_kPKv_uOyALwz_HePbq-24" target="u_kPKv_uOyALwz_HePbq-27" parent="1">
                    <mxGeometry relative="1" as="geometry"/>
                </mxCell>
                <mxCell id="u_kPKv_uOyALwz_HePbq-33" style="edgeStyle=none;html=1;entryX=0.5;entryY=0;entryDx=0;entryDy=0;entryPerimeter=0;startArrow=classic;startFill=1;endArrow=none;endFill=0;dashed=1;" edge="1" source="u_kPKv_uOyALwz_HePbq-24" target="u_kPKv_uOyALwz_HePbq-28" parent="1">
                    <mxGeometry relative="1" as="geometry">
                        <Array as="points">
                            <mxPoint x="960" y="230"/>
                            <mxPoint x="1120" y="230"/>
                        </Array>
                    </mxGeometry>
                </mxCell>
                <mxCell id="u_kPKv_uOyALwz_HePbq-34" style="edgeStyle=none;html=1;entryX=0.75;entryY=0;entryDx=0;entryDy=0;entryPerimeter=0;jumpStyle=arc;" edge="1" source="u_kPKv_uOyALwz_HePbq-25" target="u_kPKv_uOyALwz_HePbq-27" parent="1">
                    <mxGeometry relative="1" as="geometry">
                        <Array as="points">
                            <mxPoint x="1090" y="190"/>
                            <mxPoint x="973" y="190"/>
                        </Array>
                    </mxGeometry>
                </mxCell>
                <mxCell id="u_kPKv_uOyALwz_HePbq-35" style="edgeStyle=none;html=1;entryX=0.75;entryY=0;entryDx=0;entryDy=0;entryPerimeter=0;" edge="1" source="u_kPKv_uOyALwz_HePbq-25" target="u_kPKv_uOyALwz_HePbq-28" parent="1">
                    <mxGeometry relative="1" as="geometry">
                        <Array as="points">
                            <mxPoint x="1090" y="190"/>
                            <mxPoint x="1133" y="190"/>
                        </Array>
                    </mxGeometry>
                </mxCell>
                <mxCell id="u_kPKv_uOyALwz_HePbq-36" value="Region - us-east-1" style="points=[[0,0],[0.25,0],[0.5,0],[0.75,0],[1,0],[1,0.25],[1,0.5],[1,0.75],[1,1],[0.75,1],[0.5,1],[0.25,1],[0,1],[0,0.75],[0,0.5],[0,0.25]];outlineConnect=0;gradientColor=none;html=1;whiteSpace=wrap;fontSize=12;fontStyle=0;container=1;pointerEvents=0;collapsible=0;recursiveResize=0;shape=mxgraph.aws4.group;grIcon=mxgraph.aws4.group_region;strokeColor=#00A4A6;fillColor=none;verticalAlign=top;align=left;spacingLeft=30;fontColor=#147EBA;dashed=1;" vertex="1" parent="1">
                    <mxGeometry x="835" y="-103.83" width="440" height="533.83" as="geometry"/>
                </mxCell>
                <mxCell id="u_kPKv_uOyALwz_HePbq-39" style="edgeStyle=none;html=1;exitX=0.5;exitY=0;exitDx=0;exitDy=0;exitPerimeter=0;entryX=0.5;entryY=1;entryDx=0;entryDy=0;entryPerimeter=0;" edge="1" parent="1" source="u_kPKv_uOyALwz_HePbq-10" target="u_kPKv_uOyALwz_HePbq-18">
                    <mxGeometry relative="1" as="geometry">
                        <Array as="points">
                            <mxPoint x="615" y="-130"/>
                            <mxPoint x="1090" y="-130"/>
                        </Array>
                    </mxGeometry>
                </mxCell>
                <mxCell id="u_kPKv_uOyALwz_HePbq-41" style="edgeStyle=none;html=1;" edge="1" parent="1" source="u_kPKv_uOyALwz_HePbq-40" target="u_kPKv_uOyALwz_HePbq-18">
                    <mxGeometry relative="1" as="geometry"/>
                </mxCell>
                <mxCell id="u_kPKv_uOyALwz_HePbq-40" value="" style="sketch=0;pointerEvents=1;shadow=0;dashed=0;html=1;strokeColor=none;labelPosition=center;verticalLabelPosition=bottom;verticalAlign=top;align=center;fillColor=#505050;shape=mxgraph.mscae.intune.user_group" vertex="1" parent="1">
                    <mxGeometry x="1065" y="-450" width="50" height="37" as="geometry"/>
                </mxCell>
                <mxCell id="u_kPKv_uOyALwz_HePbq-42" style="edgeStyle=none;html=1;entryX=0.5;entryY=0;entryDx=0;entryDy=0;entryPerimeter=0;" edge="1" parent="1" source="u_kPKv_uOyALwz_HePbq-18" target="u_kPKv_uOyALwz_HePbq-37">
                    <mxGeometry relative="1" as="geometry">
                        <Array as="points">
                            <mxPoint x="820" y="-320"/>
                        </Array>
                    </mxGeometry>
                </mxCell>
                <mxCell id="u_kPKv_uOyALwz_HePbq-43" value="&lt;span style=&quot;color: rgb(63, 63, 63); font-size: 12px; text-align: left; background-color: rgb(251, 251, 251);&quot;&gt;Resolução&amp;nbsp;&lt;/span&gt;&lt;div&gt;&lt;span style=&quot;color: rgb(63, 63, 63); font-size: 12px; text-align: left; background-color: rgb(251, 251, 251);&quot;&gt;DNS e Policy-Based Routing&amp;nbsp;&lt;/span&gt;&lt;/div&gt;" style="edgeLabel;html=1;align=center;verticalAlign=middle;resizable=0;points=[];" vertex="1" connectable="0" parent="u_kPKv_uOyALwz_HePbq-42">
                    <mxGeometry x="-0.1718" y="1" relative="1" as="geometry">
                        <mxPoint x="24" y="-20" as="offset"/>
                    </mxGeometry>
                </mxCell>
            </root>
        </mxGraphModel>
    </diagram>
    <diagram name="Lab2" id="RR1Rf00T1V-elXOWG_EU">
        <mxGraphModel dx="867" dy="1701" grid="1" gridSize="10" guides="1" tooltips="1" connect="1" arrows="1" fold="1" page="1" pageScale="1" pageWidth="850" pageHeight="1100" math="0" shadow="0">
            <root>
                <mxCell id="bV5riPkNC_JlCcLs9zjz-0"/>
                <mxCell id="bV5riPkNC_JlCcLs9zjz-1" parent="bV5riPkNC_JlCcLs9zjz-0"/>
                <mxCell id="bV5riPkNC_JlCcLs9zjz-2" value="Availability Zone" style="fillColor=none;strokeColor=#147EBA;dashed=1;verticalAlign=top;fontStyle=0;fontColor=#147EBA;whiteSpace=wrap;html=1;" vertex="1" parent="bV5riPkNC_JlCcLs9zjz-1">
                    <mxGeometry x="400" y="-60" width="350" height="470" as="geometry"/>
                </mxCell>
                <mxCell id="bV5riPkNC_JlCcLs9zjz-3" value="VPC" style="sketch=0;outlineConnect=0;gradientColor=none;html=1;whiteSpace=wrap;fontSize=12;fontStyle=0;shape=mxgraph.aws4.group;grIcon=mxgraph.aws4.group_vpc;strokeColor=#879196;fillColor=none;verticalAlign=top;align=left;spacingLeft=30;fontColor=#879196;dashed=0;" vertex="1" parent="bV5riPkNC_JlCcLs9zjz-1">
                    <mxGeometry x="375" width="400" height="390" as="geometry"/>
                </mxCell>
                <mxCell id="bV5riPkNC_JlCcLs9zjz-4" value="Public subnet" style="points=[[0,0],[0.25,0],[0.5,0],[0.75,0],[1,0],[1,0.25],[1,0.5],[1,0.75],[1,1],[0.75,1],[0.5,1],[0.25,1],[0,1],[0,0.75],[0,0.5],[0,0.25]];outlineConnect=0;gradientColor=none;html=1;whiteSpace=wrap;fontSize=12;fontStyle=0;container=1;pointerEvents=0;collapsible=0;recursiveResize=0;shape=mxgraph.aws4.group;grIcon=mxgraph.aws4.group_security_group;grStroke=0;strokeColor=#7AA116;fillColor=#F2F6E8;verticalAlign=top;align=left;spacingLeft=30;fontColor=#248814;dashed=0;" vertex="1" parent="bV5riPkNC_JlCcLs9zjz-1">
                    <mxGeometry x="420" y="80" width="310" height="130" as="geometry"/>
                </mxCell>
                <mxCell id="bV5riPkNC_JlCcLs9zjz-5" value="NAT&lt;div&gt;Gatway&lt;/div&gt;" style="outlineConnect=0;dashed=0;verticalLabelPosition=middle;verticalAlign=middle;align=left;html=1;shape=mxgraph.aws3.vpc_nat_gateway;fillColor=#F58534;gradientColor=none;aspect=fixed;labelPosition=right;" vertex="1" parent="bV5riPkNC_JlCcLs9zjz-4">
                    <mxGeometry x="40" y="38.91" width="50" height="52.17" as="geometry"/>
                </mxCell>
                <mxCell id="bV5riPkNC_JlCcLs9zjz-6" value="Application&lt;div&gt;Load Balancer&lt;/div&gt;" style="outlineConnect=0;dashed=0;verticalLabelPosition=middle;verticalAlign=middle;align=left;html=1;shape=mxgraph.aws3.application_load_balancer;fillColor=#F58534;gradientColor=none;aspect=fixed;labelPosition=right;" vertex="1" parent="bV5riPkNC_JlCcLs9zjz-4">
                    <mxGeometry x="170" y="38.91" width="50" height="52.17" as="geometry"/>
                </mxCell>
                <mxCell id="bV5riPkNC_JlCcLs9zjz-7" value="Private subnet" style="points=[[0,0],[0.25,0],[0.5,0],[0.75,0],[1,0],[1,0.25],[1,0.5],[1,0.75],[1,1],[0.75,1],[0.5,1],[0.25,1],[0,1],[0,0.75],[0,0.5],[0,0.25]];outlineConnect=0;gradientColor=none;html=1;whiteSpace=wrap;fontSize=12;fontStyle=0;container=1;pointerEvents=0;collapsible=0;recursiveResize=0;shape=mxgraph.aws4.group;grIcon=mxgraph.aws4.group_security_group;grStroke=0;strokeColor=#00A4A6;fillColor=#E6F6F7;verticalAlign=top;align=left;spacingLeft=30;fontColor=#147EBA;dashed=0;" vertex="1" parent="bV5riPkNC_JlCcLs9zjz-1">
                    <mxGeometry x="420" y="240" width="310" height="130" as="geometry"/>
                </mxCell>
                <mxCell id="bV5riPkNC_JlCcLs9zjz-8" value="EC2&lt;div&gt;Node 1&lt;/div&gt;" style="sketch=0;points=[[0,0,0],[0.25,0,0],[0.5,0,0],[0.75,0,0],[1,0,0],[0,1,0],[0.25,1,0],[0.5,1,0],[0.75,1,0],[1,1,0],[0,0.25,0],[0,0.5,0],[0,0.75,0],[1,0.25,0],[1,0.5,0],[1,0.75,0]];outlineConnect=0;fontColor=#232F3E;fillColor=#ED7100;strokeColor=#ffffff;dashed=0;verticalLabelPosition=bottom;verticalAlign=top;align=center;html=1;fontSize=12;fontStyle=0;aspect=fixed;shape=mxgraph.aws4.resourceIcon;resIcon=mxgraph.aws4.ec2;" vertex="1" parent="bV5riPkNC_JlCcLs9zjz-7">
                    <mxGeometry x="40" y="40" width="50" height="50" as="geometry"/>
                </mxCell>
                <mxCell id="bV5riPkNC_JlCcLs9zjz-9" value="EC2&lt;div&gt;Node 2&lt;/div&gt;" style="sketch=0;points=[[0,0,0],[0.25,0,0],[0.5,0,0],[0.75,0,0],[1,0,0],[0,1,0],[0.25,1,0],[0.5,1,0],[0.75,1,0],[1,1,0],[0,0.25,0],[0,0.5,0],[0,0.75,0],[1,0.25,0],[1,0.5,0],[1,0.75,0]];outlineConnect=0;fontColor=#232F3E;fillColor=#ED7100;strokeColor=#ffffff;dashed=0;verticalLabelPosition=bottom;verticalAlign=top;align=center;html=1;fontSize=12;fontStyle=0;aspect=fixed;shape=mxgraph.aws4.resourceIcon;resIcon=mxgraph.aws4.ec2;" vertex="1" parent="bV5riPkNC_JlCcLs9zjz-7">
                    <mxGeometry x="200" y="40" width="50" height="50" as="geometry"/>
                </mxCell>
                <mxCell id="bV5riPkNC_JlCcLs9zjz-10" style="edgeStyle=none;html=1;" edge="1" parent="bV5riPkNC_JlCcLs9zjz-1" source="bV5riPkNC_JlCcLs9zjz-11" target="bV5riPkNC_JlCcLs9zjz-6">
                    <mxGeometry relative="1" as="geometry"/>
                </mxCell>
                <mxCell id="bV5riPkNC_JlCcLs9zjz-11" value="Internet&lt;div&gt;Gateway&lt;/div&gt;" style="outlineConnect=0;dashed=0;verticalLabelPosition=middle;verticalAlign=middle;align=left;html=1;shape=mxgraph.aws3.internet_gateway;fillColor=#F58536;gradientColor=none;aspect=fixed;labelPosition=right;" vertex="1" parent="bV5riPkNC_JlCcLs9zjz-1">
                    <mxGeometry x="590" y="-26" width="50" height="52.17" as="geometry"/>
                </mxCell>
                <mxCell id="bV5riPkNC_JlCcLs9zjz-12" style="edgeStyle=none;html=1;entryX=0.5;entryY=0;entryDx=0;entryDy=0;entryPerimeter=0;" edge="1" parent="bV5riPkNC_JlCcLs9zjz-1" source="bV5riPkNC_JlCcLs9zjz-11" target="bV5riPkNC_JlCcLs9zjz-5">
                    <mxGeometry relative="1" as="geometry">
                        <Array as="points">
                            <mxPoint x="615" y="40"/>
                            <mxPoint x="485" y="40"/>
                        </Array>
                    </mxGeometry>
                </mxCell>
                <mxCell id="bV5riPkNC_JlCcLs9zjz-13" style="edgeStyle=none;html=1;exitX=0.5;exitY=1;exitDx=0;exitDy=0;exitPerimeter=0;entryX=0.5;entryY=0;entryDx=0;entryDy=0;entryPerimeter=0;dashed=1;endArrow=none;endFill=0;startArrow=classic;startFill=1;" edge="1" parent="bV5riPkNC_JlCcLs9zjz-1" source="bV5riPkNC_JlCcLs9zjz-5" target="bV5riPkNC_JlCcLs9zjz-8">
                    <mxGeometry relative="1" as="geometry"/>
                </mxCell>
                <mxCell id="bV5riPkNC_JlCcLs9zjz-14" style="edgeStyle=none;html=1;entryX=0.5;entryY=0;entryDx=0;entryDy=0;entryPerimeter=0;startArrow=classic;startFill=1;endArrow=none;endFill=0;dashed=1;" edge="1" parent="bV5riPkNC_JlCcLs9zjz-1" source="bV5riPkNC_JlCcLs9zjz-5" target="bV5riPkNC_JlCcLs9zjz-9">
                    <mxGeometry relative="1" as="geometry">
                        <Array as="points">
                            <mxPoint x="485" y="230"/>
                            <mxPoint x="645" y="230"/>
                        </Array>
                    </mxGeometry>
                </mxCell>
                <mxCell id="bV5riPkNC_JlCcLs9zjz-15" style="edgeStyle=none;html=1;entryX=0.75;entryY=0;entryDx=0;entryDy=0;entryPerimeter=0;jumpStyle=arc;" edge="1" parent="bV5riPkNC_JlCcLs9zjz-1" source="bV5riPkNC_JlCcLs9zjz-6" target="bV5riPkNC_JlCcLs9zjz-8">
                    <mxGeometry relative="1" as="geometry">
                        <Array as="points">
                            <mxPoint x="615" y="190"/>
                            <mxPoint x="498" y="190"/>
                        </Array>
                    </mxGeometry>
                </mxCell>
                <mxCell id="bV5riPkNC_JlCcLs9zjz-16" style="edgeStyle=none;html=1;entryX=0.75;entryY=0;entryDx=0;entryDy=0;entryPerimeter=0;" edge="1" parent="bV5riPkNC_JlCcLs9zjz-1" source="bV5riPkNC_JlCcLs9zjz-6" target="bV5riPkNC_JlCcLs9zjz-9">
                    <mxGeometry relative="1" as="geometry">
                        <Array as="points">
                            <mxPoint x="615" y="190"/>
                            <mxPoint x="658" y="190"/>
                        </Array>
                    </mxGeometry>
                </mxCell>
                <mxCell id="bV5riPkNC_JlCcLs9zjz-17" value="AWS Cloud" style="points=[[0,0],[0.25,0],[0.5,0],[0.75,0],[1,0],[1,0.25],[1,0.5],[1,0.75],[1,1],[0.75,1],[0.5,1],[0.25,1],[0,1],[0,0.75],[0,0.5],[0,0.25]];outlineConnect=0;gradientColor=none;html=1;whiteSpace=wrap;fontSize=12;fontStyle=0;container=1;pointerEvents=0;collapsible=0;recursiveResize=0;shape=mxgraph.aws4.group;grIcon=mxgraph.aws4.group_aws_cloud;strokeColor=#232F3E;fillColor=none;verticalAlign=top;align=left;spacingLeft=30;fontColor=#232F3E;dashed=0;" vertex="1" parent="bV5riPkNC_JlCcLs9zjz-1">
                    <mxGeometry x="340" y="-80" width="470" height="520" as="geometry"/>
                </mxCell>
                <mxCell id="bV5riPkNC_JlCcLs9zjz-20" style="edgeStyle=none;html=1;dashed=1;startArrow=classic;startFill=1;" edge="1" parent="bV5riPkNC_JlCcLs9zjz-1" source="bV5riPkNC_JlCcLs9zjz-21" target="bV5riPkNC_JlCcLs9zjz-11">
                    <mxGeometry relative="1" as="geometry"/>
                </mxCell>
                <mxCell id="bV5riPkNC_JlCcLs9zjz-21" value="" style="outlineConnect=0;dashed=0;verticalLabelPosition=bottom;verticalAlign=top;align=center;html=1;shape=mxgraph.aws3.internet_3;fillColor=#D2D3D3;gradientColor=none;aspect=fixed;" vertex="1" parent="bV5riPkNC_JlCcLs9zjz-1">
                    <mxGeometry x="590" y="-150" width="50" height="33.96" as="geometry"/>
                </mxCell>
                <mxCell id="d6A7e_bsbiXs0J9orXJQ-0" value="Configurações de roteamento:&amp;nbsp;&lt;div&gt;&lt;ul&gt;&lt;li style=&quot;&quot;&gt;http://api.laboratorio.com.br/admin/v1/users&amp;nbsp;&amp;nbsp;&lt;span id=&quot;docs-internal-guid-18bb2736-7fff-875a-ba0f-b0caf0326f00&quot;&gt;&lt;span style=&quot;font-family: Arial, sans-serif; color: rgb(0, 0, 0); background-color: transparent; font-variant-numeric: normal; font-variant-east-asian: normal; font-variant-alternates: normal; font-variant-position: normal; font-variant-emoji: normal; vertical-align: baseline; white-space-collapse: preserve;&quot;&gt;→ EC2 Node 2&lt;/span&gt;&lt;/span&gt;&lt;/li&gt;&lt;li style=&quot;&quot;&gt;&lt;span&gt;&lt;span style=&quot;font-family: Arial, sans-serif; color: rgb(0, 0, 0); background-color: transparent; font-variant-numeric: normal; font-variant-east-asian: normal; font-variant-alternates: normal; font-variant-position: normal; font-variant-emoji: normal; vertical-align: baseline; white-space-collapse: preserve;&quot;&gt;http://laboratorio.com.br/* &lt;/span&gt;&lt;/span&gt;&lt;span style=&quot;color: rgb(0, 0, 0); font-family: Arial, sans-serif; white-space-collapse: preserve;&quot;&gt;→ EC2 Node 1&lt;/span&gt;&lt;/li&gt;&lt;li style=&quot;&quot;&gt;&lt;span style=&quot;color: rgb(0, 0, 0); font-family: Arial, sans-serif; white-space-collapse: preserve;&quot;&gt;Rotas desconheidas &lt;/span&gt;&lt;span style=&quot;color: rgb(0, 0, 0); font-family: Arial, sans-serif; white-space-collapse: preserve;&quot;&gt;→  Defautl action: Not Found 404&lt;/span&gt;&lt;/li&gt;&lt;/ul&gt;&lt;/div&gt;" style="text;html=1;align=left;verticalAlign=top;whiteSpace=wrap;rounded=0;fontSize=12;" vertex="1" parent="bV5riPkNC_JlCcLs9zjz-1">
                    <mxGeometry x="840" y="100" width="430" height="130" as="geometry"/>
                </mxCell>
            </root>
        </mxGraphModel>
    </diagram>
    <diagram name="L7 Patterns" id="nFdVOWFxFBSklTC1o4Xv">
        <mxGraphModel dx="389" dy="1959" grid="1" gridSize="10" guides="1" tooltips="1" connect="1" arrows="1" fold="1" page="1" pageScale="1" pageWidth="850" pageHeight="1100" math="0" shadow="0">
            <root>
                <mxCell id="Ya0u_PM6cvLTPJFGKIRO-0"/>
                <mxCell id="Ya0u_PM6cvLTPJFGKIRO-1" parent="Ya0u_PM6cvLTPJFGKIRO-0"/>
                <mxCell id="L2ZM_2mlpaxEjefJNVIe-0" value="" style="group" vertex="1" connectable="0" parent="Ya0u_PM6cvLTPJFGKIRO-1">
                    <mxGeometry x="2010" y="-90" width="540" height="660" as="geometry"/>
                </mxCell>
                <mxCell id="L2ZM_2mlpaxEjefJNVIe-1" value="Private subnet" style="points=[[0,0],[0.25,0],[0.5,0],[0.75,0],[1,0],[1,0.25],[1,0.5],[1,0.75],[1,1],[0.75,1],[0.5,1],[0.25,1],[0,1],[0,0.75],[0,0.5],[0,0.25]];outlineConnect=0;gradientColor=none;html=1;whiteSpace=wrap;fontSize=12;fontStyle=0;container=1;pointerEvents=0;collapsible=0;recursiveResize=0;shape=mxgraph.aws4.group;grIcon=mxgraph.aws4.group_security_group;grStroke=0;strokeColor=#00A4A6;fillColor=#E6F6F7;verticalAlign=top;align=left;spacingLeft=30;fontColor=#147EBA;dashed=0;" vertex="1" parent="L2ZM_2mlpaxEjefJNVIe-0">
                    <mxGeometry x="50" y="326" width="450" height="250" as="geometry"/>
                </mxCell>
                <mxCell id="L2ZM_2mlpaxEjefJNVIe-2" value="Network Load Balancer&lt;div&gt;Internal&lt;/div&gt;" style="sketch=0;outlineConnect=0;fontColor=#232F3E;gradientColor=none;fillColor=#8C4FFF;strokeColor=none;dashed=0;verticalLabelPosition=middle;verticalAlign=middle;align=left;html=1;fontSize=12;fontStyle=0;aspect=fixed;pointerEvents=1;shape=mxgraph.aws4.network_load_balancer;labelPosition=right;" vertex="1" parent="L2ZM_2mlpaxEjefJNVIe-1">
                    <mxGeometry x="190" y="28" width="50" height="50" as="geometry"/>
                </mxCell>
                <mxCell id="L2ZM_2mlpaxEjefJNVIe-3" value="VPC" style="points=[[0,0],[0.25,0],[0.5,0],[0.75,0],[1,0],[1,0.25],[1,0.5],[1,0.75],[1,1],[0.75,1],[0.5,1],[0.25,1],[0,1],[0,0.75],[0,0.5],[0,0.25]];outlineConnect=0;gradientColor=none;html=1;whiteSpace=wrap;fontSize=12;fontStyle=0;container=1;pointerEvents=0;collapsible=0;recursiveResize=0;shape=mxgraph.aws4.group;grIcon=mxgraph.aws4.group_vpc2;strokeColor=#8C4FFF;fillColor=none;verticalAlign=top;align=left;spacingLeft=30;fontColor=#AAB7B8;dashed=0;" vertex="1" parent="L2ZM_2mlpaxEjefJNVIe-0">
                    <mxGeometry x="10" y="240" width="520" height="400" as="geometry"/>
                </mxCell>
                <mxCell id="L2ZM_2mlpaxEjefJNVIe-4" value="Region" style="sketch=0;outlineConnect=0;gradientColor=none;html=1;whiteSpace=wrap;fontSize=12;fontStyle=0;shape=mxgraph.aws4.group;grIcon=mxgraph.aws4.group_region;strokeColor=#879196;fillColor=none;verticalAlign=top;align=left;spacingLeft=30;fontColor=#879196;dashed=1;" vertex="1" parent="L2ZM_2mlpaxEjefJNVIe-3">
                    <mxGeometry x="30" y="30" width="470" height="330" as="geometry"/>
                </mxCell>
                <mxCell id="L2ZM_2mlpaxEjefJNVIe-5" value="Availability Zone" style="fillColor=none;strokeColor=#147EBA;dashed=1;verticalAlign=top;fontStyle=0;fontColor=#147EBA;whiteSpace=wrap;html=1;" vertex="1" parent="L2ZM_2mlpaxEjefJNVIe-3">
                    <mxGeometry x="110" y="40" width="320" height="340" as="geometry"/>
                </mxCell>
                <mxCell id="L2ZM_2mlpaxEjefJNVIe-6" style="edgeStyle=none;html=1;" edge="1" parent="L2ZM_2mlpaxEjefJNVIe-0" source="L2ZM_2mlpaxEjefJNVIe-10" target="L2ZM_2mlpaxEjefJNVIe-2">
                    <mxGeometry relative="1" as="geometry"/>
                </mxCell>
                <mxCell id="L2ZM_2mlpaxEjefJNVIe-7" value="" style="edgeStyle=none;html=1;" edge="1" parent="L2ZM_2mlpaxEjefJNVIe-0" source="L2ZM_2mlpaxEjefJNVIe-9" target="L2ZM_2mlpaxEjefJNVIe-10">
                    <mxGeometry relative="1" as="geometry">
                        <mxPoint x="265" y="150" as="sourcePoint"/>
                        <mxPoint x="265" y="350" as="targetPoint"/>
                    </mxGeometry>
                </mxCell>
                <mxCell id="L2ZM_2mlpaxEjefJNVIe-8" style="edgeStyle=none;html=1;" edge="1" parent="L2ZM_2mlpaxEjefJNVIe-0" source="L2ZM_2mlpaxEjefJNVIe-15" target="L2ZM_2mlpaxEjefJNVIe-9">
                    <mxGeometry relative="1" as="geometry"/>
                </mxCell>
                <mxCell id="L2ZM_2mlpaxEjefJNVIe-9" value="API Gateway&lt;div&gt;REST API&lt;/div&gt;" style="sketch=0;points=[[0,0,0],[0.25,0,0],[0.5,0,0],[0.75,0,0],[1,0,0],[0,1,0],[0.25,1,0],[0.5,1,0],[0.75,1,0],[1,1,0],[0,0.25,0],[0,0.5,0],[0,0.75,0],[1,0.25,0],[1,0.5,0],[1,0.75,0]];outlineConnect=0;fontColor=#232F3E;fillColor=#8C4FFF;strokeColor=#ffffff;dashed=0;verticalLabelPosition=middle;verticalAlign=middle;align=left;html=1;fontSize=12;fontStyle=0;aspect=fixed;shape=mxgraph.aws4.resourceIcon;resIcon=mxgraph.aws4.api_gateway;labelPosition=right;" vertex="1" parent="L2ZM_2mlpaxEjefJNVIe-0">
                    <mxGeometry x="240" y="100" width="50" height="50" as="geometry"/>
                </mxCell>
                <mxCell id="L2ZM_2mlpaxEjefJNVIe-10" value="VPC Link" style="sketch=0;outlineConnect=0;fontColor=#232F3E;gradientColor=none;fillColor=#8C4FFF;strokeColor=none;dashed=0;verticalLabelPosition=middle;verticalAlign=middle;align=left;html=1;fontSize=12;fontStyle=0;aspect=fixed;pointerEvents=1;shape=mxgraph.aws4.endpoints;labelPosition=right;" vertex="1" parent="L2ZM_2mlpaxEjefJNVIe-0">
                    <mxGeometry x="240" y="180" width="50" height="50" as="geometry"/>
                </mxCell>
                <mxCell id="L2ZM_2mlpaxEjefJNVIe-11" value="AWS Cloud" style="points=[[0,0],[0.25,0],[0.5,0],[0.75,0],[1,0],[1,0.25],[1,0.5],[1,0.75],[1,1],[0.75,1],[0.5,1],[0.25,1],[0,1],[0,0.75],[0,0.5],[0,0.25]];outlineConnect=0;gradientColor=none;html=1;whiteSpace=wrap;fontSize=12;fontStyle=0;container=1;pointerEvents=0;collapsible=0;recursiveResize=0;shape=mxgraph.aws4.group;grIcon=mxgraph.aws4.group_aws_cloud;strokeColor=#232F3E;fillColor=none;verticalAlign=top;align=left;spacingLeft=30;fontColor=#232F3E;dashed=0;" vertex="1" parent="L2ZM_2mlpaxEjefJNVIe-0">
                    <mxGeometry y="70" width="540" height="590" as="geometry"/>
                </mxCell>
                <mxCell id="L2ZM_2mlpaxEjefJNVIe-12" value="Application Load Balancer&lt;div&gt;Internal&lt;/div&gt;" style="sketch=0;outlineConnect=0;fontColor=#232F3E;gradientColor=none;fillColor=#8C4FFF;strokeColor=none;dashed=0;verticalLabelPosition=middle;verticalAlign=middle;align=left;html=1;fontSize=12;fontStyle=0;aspect=fixed;pointerEvents=1;shape=mxgraph.aws4.application_load_balancer;labelPosition=right;" vertex="1" parent="L2ZM_2mlpaxEjefJNVIe-11">
                    <mxGeometry x="240" y="365" width="50" height="50" as="geometry"/>
                </mxCell>
                <mxCell id="L2ZM_2mlpaxEjefJNVIe-13" value="Elastic Container Service&lt;div&gt;Fargate&lt;/div&gt;" style="sketch=0;points=[[0,0,0],[0.25,0,0],[0.5,0,0],[0.75,0,0],[1,0,0],[0,1,0],[0.25,1,0],[0.5,1,0],[0.75,1,0],[1,1,0],[0,0.25,0],[0,0.5,0],[0,0.75,0],[1,0.25,0],[1,0.5,0],[1,0.75,0]];outlineConnect=0;fontColor=#232F3E;fillColor=#ED7100;strokeColor=#ffffff;dashed=0;verticalLabelPosition=middle;verticalAlign=middle;align=left;html=1;fontSize=12;fontStyle=0;aspect=fixed;shape=mxgraph.aws4.resourceIcon;resIcon=mxgraph.aws4.fargate;labelPosition=right;" vertex="1" parent="L2ZM_2mlpaxEjefJNVIe-11">
                    <mxGeometry x="240" y="446" width="50" height="50" as="geometry"/>
                </mxCell>
                <mxCell id="L2ZM_2mlpaxEjefJNVIe-14" style="edgeStyle=none;html=1;" edge="1" parent="L2ZM_2mlpaxEjefJNVIe-11" source="L2ZM_2mlpaxEjefJNVIe-12" target="L2ZM_2mlpaxEjefJNVIe-13">
                    <mxGeometry relative="1" as="geometry"/>
                </mxCell>
                <mxCell id="L2ZM_2mlpaxEjefJNVIe-15" value="Aplicação" style="rounded=1;whiteSpace=wrap;html=1;fontSize=10;fillColor=#000000;fontColor=#FFFFFF;strokeColor=#666666;" vertex="1" parent="L2ZM_2mlpaxEjefJNVIe-0">
                    <mxGeometry x="205" width="120" height="20" as="geometry"/>
                </mxCell>
                <mxCell id="L2ZM_2mlpaxEjefJNVIe-16" style="edgeStyle=none;html=1;" edge="1" parent="L2ZM_2mlpaxEjefJNVIe-0" source="L2ZM_2mlpaxEjefJNVIe-2" target="L2ZM_2mlpaxEjefJNVIe-12">
                    <mxGeometry relative="1" as="geometry">
                        <mxPoint x="265" y="444" as="targetPoint"/>
                    </mxGeometry>
                </mxCell>
                <mxCell id="Ya0u_PM6cvLTPJFGKIRO-24" value="Private subnet" style="points=[[0,0],[0.25,0],[0.5,0],[0.75,0],[1,0],[1,0.25],[1,0.5],[1,0.75],[1,1],[0.75,1],[0.5,1],[0.25,1],[0,1],[0,0.75],[0,0.5],[0,0.25]];outlineConnect=0;gradientColor=none;html=1;whiteSpace=wrap;fontSize=12;fontStyle=0;container=1;pointerEvents=0;collapsible=0;recursiveResize=0;shape=mxgraph.aws4.group;grIcon=mxgraph.aws4.group_security_group;grStroke=0;strokeColor=#00A4A6;fillColor=#E6F6F7;verticalAlign=top;align=left;spacingLeft=30;fontColor=#147EBA;dashed=0;" vertex="1" parent="Ya0u_PM6cvLTPJFGKIRO-1">
                    <mxGeometry x="1370" y="236" width="450" height="250" as="geometry"/>
                </mxCell>
                <mxCell id="Ya0u_PM6cvLTPJFGKIRO-26" value="VPC" style="points=[[0,0],[0.25,0],[0.5,0],[0.75,0],[1,0],[1,0.25],[1,0.5],[1,0.75],[1,1],[0.75,1],[0.5,1],[0.25,1],[0,1],[0,0.75],[0,0.5],[0,0.25]];outlineConnect=0;gradientColor=none;html=1;whiteSpace=wrap;fontSize=12;fontStyle=0;container=1;pointerEvents=0;collapsible=0;recursiveResize=0;shape=mxgraph.aws4.group;grIcon=mxgraph.aws4.group_vpc2;strokeColor=#8C4FFF;fillColor=none;verticalAlign=top;align=left;spacingLeft=30;fontColor=#AAB7B8;dashed=0;" vertex="1" parent="Ya0u_PM6cvLTPJFGKIRO-1">
                    <mxGeometry x="1330" y="150" width="520" height="400" as="geometry"/>
                </mxCell>
                <mxCell id="Ya0u_PM6cvLTPJFGKIRO-27" value="Region" style="sketch=0;outlineConnect=0;gradientColor=none;html=1;whiteSpace=wrap;fontSize=12;fontStyle=0;shape=mxgraph.aws4.group;grIcon=mxgraph.aws4.group_region;strokeColor=#879196;fillColor=none;verticalAlign=top;align=left;spacingLeft=30;fontColor=#879196;dashed=1;" vertex="1" parent="Ya0u_PM6cvLTPJFGKIRO-26">
                    <mxGeometry x="30" y="30" width="470" height="330" as="geometry"/>
                </mxCell>
                <mxCell id="Ya0u_PM6cvLTPJFGKIRO-28" value="Availability Zone" style="fillColor=none;strokeColor=#147EBA;dashed=1;verticalAlign=top;fontStyle=0;fontColor=#147EBA;whiteSpace=wrap;html=1;" vertex="1" parent="Ya0u_PM6cvLTPJFGKIRO-26">
                    <mxGeometry x="110" y="40" width="320" height="340" as="geometry"/>
                </mxCell>
                <mxCell id="Ya0u_PM6cvLTPJFGKIRO-31" style="edgeStyle=none;html=1;entryX=0.5;entryY=0;entryDx=0;entryDy=0;entryPerimeter=0;" edge="1" parent="Ya0u_PM6cvLTPJFGKIRO-1" source="Ya0u_PM6cvLTPJFGKIRO-38" target="r9hZoi6LTWzZawjc6lu7-0">
                    <mxGeometry relative="1" as="geometry">
                        <mxPoint x="1585" y="10" as="targetPoint"/>
                    </mxGeometry>
                </mxCell>
                <mxCell id="Ya0u_PM6cvLTPJFGKIRO-34" value="AWS Cloud" style="points=[[0,0],[0.25,0],[0.5,0],[0.75,0],[1,0],[1,0.25],[1,0.5],[1,0.75],[1,1],[0.75,1],[0.5,1],[0.25,1],[0,1],[0,0.75],[0,0.5],[0,0.25]];outlineConnect=0;gradientColor=none;html=1;whiteSpace=wrap;fontSize=12;fontStyle=0;container=1;pointerEvents=0;collapsible=0;recursiveResize=0;shape=mxgraph.aws4.group;grIcon=mxgraph.aws4.group_aws_cloud;strokeColor=#232F3E;fillColor=none;verticalAlign=top;align=left;spacingLeft=30;fontColor=#232F3E;dashed=0;" vertex="1" parent="Ya0u_PM6cvLTPJFGKIRO-1">
                    <mxGeometry x="1320" y="-20" width="540" height="590" as="geometry"/>
                </mxCell>
                <mxCell id="Ya0u_PM6cvLTPJFGKIRO-35" value="Application Load Balancer&lt;div&gt;Internal&lt;/div&gt;" style="sketch=0;outlineConnect=0;fontColor=#232F3E;gradientColor=none;fillColor=#8C4FFF;strokeColor=none;dashed=0;verticalLabelPosition=middle;verticalAlign=middle;align=left;html=1;fontSize=12;fontStyle=0;aspect=fixed;pointerEvents=1;shape=mxgraph.aws4.application_load_balancer;labelPosition=right;" vertex="1" parent="Ya0u_PM6cvLTPJFGKIRO-34">
                    <mxGeometry x="240" y="317" width="50" height="50" as="geometry"/>
                </mxCell>
                <mxCell id="Ya0u_PM6cvLTPJFGKIRO-36" value="Elastic Container Service&lt;div&gt;Fargate&lt;/div&gt;" style="sketch=0;points=[[0,0,0],[0.25,0,0],[0.5,0,0],[0.75,0,0],[1,0,0],[0,1,0],[0.25,1,0],[0.5,1,0],[0.75,1,0],[1,1,0],[0,0.25,0],[0,0.5,0],[0,0.75,0],[1,0.25,0],[1,0.5,0],[1,0.75,0]];outlineConnect=0;fontColor=#232F3E;fillColor=#ED7100;strokeColor=#ffffff;dashed=0;verticalLabelPosition=middle;verticalAlign=middle;align=left;html=1;fontSize=12;fontStyle=0;aspect=fixed;shape=mxgraph.aws4.resourceIcon;resIcon=mxgraph.aws4.fargate;labelPosition=right;" vertex="1" parent="Ya0u_PM6cvLTPJFGKIRO-34">
                    <mxGeometry x="240" y="446" width="50" height="50" as="geometry"/>
                </mxCell>
                <mxCell id="Ya0u_PM6cvLTPJFGKIRO-37" style="edgeStyle=none;html=1;" edge="1" parent="Ya0u_PM6cvLTPJFGKIRO-34" source="Ya0u_PM6cvLTPJFGKIRO-35" target="Ya0u_PM6cvLTPJFGKIRO-36">
                    <mxGeometry relative="1" as="geometry"/>
                </mxCell>
                <mxCell id="r9hZoi6LTWzZawjc6lu7-0" value="CloudFont" style="sketch=0;points=[[0,0,0],[0.25,0,0],[0.5,0,0],[0.75,0,0],[1,0,0],[0,1,0],[0.25,1,0],[0.5,1,0],[0.75,1,0],[1,1,0],[0,0.25,0],[0,0.5,0],[0,0.75,0],[1,0.25,0],[1,0.5,0],[1,0.75,0]];outlineConnect=0;fontColor=#232F3E;fillColor=#8C4FFF;strokeColor=#ffffff;dashed=0;verticalLabelPosition=middle;verticalAlign=middle;align=left;html=1;fontSize=12;fontStyle=0;aspect=fixed;shape=mxgraph.aws4.resourceIcon;resIcon=mxgraph.aws4.cloudfront;labelPosition=right;" vertex="1" parent="Ya0u_PM6cvLTPJFGKIRO-34">
                    <mxGeometry x="240" y="60" width="50" height="50" as="geometry"/>
                </mxCell>
                <mxCell id="Ya0u_PM6cvLTPJFGKIRO-29" style="edgeStyle=none;html=1;exitX=0.5;exitY=1;exitDx=0;exitDy=0;exitPerimeter=0;" edge="1" parent="Ya0u_PM6cvLTPJFGKIRO-34" source="r9hZoi6LTWzZawjc6lu7-0" target="Ya0u_PM6cvLTPJFGKIRO-35">
                    <mxGeometry relative="1" as="geometry">
                        <mxPoint x="265" y="160" as="sourcePoint"/>
                        <mxPoint x="265" y="284" as="targetPoint"/>
                    </mxGeometry>
                </mxCell>
                <mxCell id="r9hZoi6LTWzZawjc6lu7-1" value="[VPC Origin]" style="edgeLabel;html=1;align=center;verticalAlign=middle;resizable=0;points=[];" vertex="1" connectable="0" parent="Ya0u_PM6cvLTPJFGKIRO-29">
                    <mxGeometry x="-0.6717" y="-1" relative="1" as="geometry">
                        <mxPoint x="36" y="1" as="offset"/>
                    </mxGeometry>
                </mxCell>
                <mxCell id="Ya0u_PM6cvLTPJFGKIRO-38" value="Aplicação" style="rounded=1;whiteSpace=wrap;html=1;fontSize=10;fillColor=#000000;fontColor=#FFFFFF;strokeColor=#666666;" vertex="1" parent="Ya0u_PM6cvLTPJFGKIRO-1">
                    <mxGeometry x="1525" y="-90" width="120" height="20" as="geometry"/>
                </mxCell>
            </root>
        </mxGraphModel>
    </diagram>
    <diagram id="2QtpbWJy_itS8oWqi9IM" name="L4 Patterns">
        <mxGraphModel dx="1576" dy="2193" grid="1" gridSize="10" guides="1" tooltips="1" connect="1" arrows="1" fold="1" page="1" pageScale="1" pageWidth="850" pageHeight="1100" math="0" shadow="0">
            <root>
                <mxCell id="0"/>
                <mxCell id="1" parent="0"/>
                <mxCell id="r-apHyeXqjx2ggz9V3Vn-1" value="" style="group" vertex="1" connectable="0" parent="1">
                    <mxGeometry x="90" y="-100" width="540" height="660" as="geometry"/>
                </mxCell>
                <mxCell id="r-apHyeXqjx2ggz9V3Vn-2" value="Private subnet" style="points=[[0,0],[0.25,0],[0.5,0],[0.75,0],[1,0],[1,0.25],[1,0.5],[1,0.75],[1,1],[0.75,1],[0.5,1],[0.25,1],[0,1],[0,0.75],[0,0.5],[0,0.25]];outlineConnect=0;gradientColor=none;html=1;whiteSpace=wrap;fontSize=12;fontStyle=0;container=1;pointerEvents=0;collapsible=0;recursiveResize=0;shape=mxgraph.aws4.group;grIcon=mxgraph.aws4.group_security_group;grStroke=0;strokeColor=#00A4A6;fillColor=#E6F6F7;verticalAlign=top;align=left;spacingLeft=30;fontColor=#147EBA;dashed=0;" vertex="1" parent="r-apHyeXqjx2ggz9V3Vn-1">
                    <mxGeometry x="50" y="326" width="450" height="250" as="geometry"/>
                </mxCell>
                <mxCell id="r-apHyeXqjx2ggz9V3Vn-3" style="edgeStyle=none;html=1;entryX=0.5;entryY=0;entryDx=0;entryDy=0;" edge="1" parent="r-apHyeXqjx2ggz9V3Vn-2" source="r-apHyeXqjx2ggz9V3Vn-4" target="r-apHyeXqjx2ggz9V3Vn-8">
                    <mxGeometry relative="1" as="geometry"/>
                </mxCell>
                <mxCell id="r-apHyeXqjx2ggz9V3Vn-4" value="Network Load Balancer&lt;div&gt;Internal&lt;/div&gt;" style="sketch=0;outlineConnect=0;fontColor=#232F3E;gradientColor=none;fillColor=#8C4FFF;strokeColor=none;dashed=0;verticalLabelPosition=middle;verticalAlign=middle;align=left;html=1;fontSize=12;fontStyle=0;aspect=fixed;pointerEvents=1;shape=mxgraph.aws4.network_load_balancer;labelPosition=right;" vertex="1" parent="r-apHyeXqjx2ggz9V3Vn-2">
                    <mxGeometry x="190" y="40" width="50" height="50" as="geometry"/>
                </mxCell>
                <mxCell id="r-apHyeXqjx2ggz9V3Vn-5" value="EKS" style="points=[[0,0],[0.25,0],[0.5,0],[0.75,0],[1,0],[1,0.25],[1,0.5],[1,0.75],[1,1],[0.75,1],[0.5,1],[0.25,1],[0,1],[0,0.75],[0,0.5],[0,0.25]];outlineConnect=0;gradientColor=none;html=1;whiteSpace=wrap;fontSize=12;fontStyle=0;container=1;pointerEvents=0;collapsible=0;recursiveResize=0;shape=mxgraph.aws4.group;grIcon=mxgraph.aws4.group_ec2_instance_contents;strokeColor=#D86613;fillColor=none;verticalAlign=top;align=left;spacingLeft=30;fontColor=#D86613;dashed=0;" vertex="1" parent="r-apHyeXqjx2ggz9V3Vn-2">
                    <mxGeometry x="20" y="110" width="410" height="130" as="geometry"/>
                </mxCell>
                <mxCell id="r-apHyeXqjx2ggz9V3Vn-6" value="" style="sketch=0;points=[[0,0,0],[0.25,0,0],[0.5,0,0],[0.75,0,0],[1,0,0],[0,1,0],[0.25,1,0],[0.5,1,0],[0.75,1,0],[1,1,0],[0,0.25,0],[0,0.5,0],[0,0.75,0],[1,0.25,0],[1,0.5,0],[1,0.75,0]];outlineConnect=0;fontColor=#232F3E;fillColor=#ED7100;strokeColor=#ffffff;dashed=0;verticalLabelPosition=bottom;verticalAlign=top;align=center;html=1;fontSize=12;fontStyle=0;aspect=fixed;shape=mxgraph.aws4.resourceIcon;resIcon=mxgraph.aws4.eks;" vertex="1" parent="r-apHyeXqjx2ggz9V3Vn-5">
                    <mxGeometry width="30" height="30" as="geometry"/>
                </mxCell>
                <mxCell id="r-apHyeXqjx2ggz9V3Vn-7" style="edgeStyle=none;html=1;exitX=0.5;exitY=1;exitDx=0;exitDy=0;" edge="1" parent="r-apHyeXqjx2ggz9V3Vn-5" source="r-apHyeXqjx2ggz9V3Vn-8" target="r-apHyeXqjx2ggz9V3Vn-10">
                    <mxGeometry relative="1" as="geometry"/>
                </mxCell>
                <mxCell id="r-apHyeXqjx2ggz9V3Vn-8" value="Ingress Controler" style="rounded=1;whiteSpace=wrap;html=1;fontSize=10;fillColor=#000000;fontColor=#FFFFFF;strokeColor=#666666;" vertex="1" parent="r-apHyeXqjx2ggz9V3Vn-5">
                    <mxGeometry x="135" y="20" width="120" height="20" as="geometry"/>
                </mxCell>
                <mxCell id="r-apHyeXqjx2ggz9V3Vn-9" style="edgeStyle=none;html=1;exitX=0.5;exitY=1;exitDx=0;exitDy=0;" edge="1" parent="r-apHyeXqjx2ggz9V3Vn-5" source="r-apHyeXqjx2ggz9V3Vn-10" target="r-apHyeXqjx2ggz9V3Vn-11">
                    <mxGeometry relative="1" as="geometry"/>
                </mxCell>
                <mxCell id="r-apHyeXqjx2ggz9V3Vn-10" value="Service" style="rounded=1;whiteSpace=wrap;html=1;fontSize=10;fillColor=#000000;fontColor=#FFFFFF;strokeColor=#666666;" vertex="1" parent="r-apHyeXqjx2ggz9V3Vn-5">
                    <mxGeometry x="135" y="60" width="120" height="20" as="geometry"/>
                </mxCell>
                <mxCell id="r-apHyeXqjx2ggz9V3Vn-11" value="POD" style="rounded=1;whiteSpace=wrap;html=1;fontSize=10;fillColor=#000000;fontColor=#FFFFFF;strokeColor=#666666;" vertex="1" parent="r-apHyeXqjx2ggz9V3Vn-5">
                    <mxGeometry x="135" y="100" width="120" height="20" as="geometry"/>
                </mxCell>
                <mxCell id="r-apHyeXqjx2ggz9V3Vn-12" value="VPC" style="points=[[0,0],[0.25,0],[0.5,0],[0.75,0],[1,0],[1,0.25],[1,0.5],[1,0.75],[1,1],[0.75,1],[0.5,1],[0.25,1],[0,1],[0,0.75],[0,0.5],[0,0.25]];outlineConnect=0;gradientColor=none;html=1;whiteSpace=wrap;fontSize=12;fontStyle=0;container=1;pointerEvents=0;collapsible=0;recursiveResize=0;shape=mxgraph.aws4.group;grIcon=mxgraph.aws4.group_vpc2;strokeColor=#8C4FFF;fillColor=none;verticalAlign=top;align=left;spacingLeft=30;fontColor=#AAB7B8;dashed=0;" vertex="1" parent="r-apHyeXqjx2ggz9V3Vn-1">
                    <mxGeometry x="10" y="240" width="520" height="400" as="geometry"/>
                </mxCell>
                <mxCell id="r-apHyeXqjx2ggz9V3Vn-13" value="Region" style="sketch=0;outlineConnect=0;gradientColor=none;html=1;whiteSpace=wrap;fontSize=12;fontStyle=0;shape=mxgraph.aws4.group;grIcon=mxgraph.aws4.group_region;strokeColor=#879196;fillColor=none;verticalAlign=top;align=left;spacingLeft=30;fontColor=#879196;dashed=1;" vertex="1" parent="r-apHyeXqjx2ggz9V3Vn-12">
                    <mxGeometry x="30" y="30" width="470" height="330" as="geometry"/>
                </mxCell>
                <mxCell id="r-apHyeXqjx2ggz9V3Vn-14" value="Availability Zone" style="fillColor=none;strokeColor=#147EBA;dashed=1;verticalAlign=top;fontStyle=0;fontColor=#147EBA;whiteSpace=wrap;html=1;" vertex="1" parent="r-apHyeXqjx2ggz9V3Vn-12">
                    <mxGeometry x="110" y="40" width="320" height="340" as="geometry"/>
                </mxCell>
                <mxCell id="r-apHyeXqjx2ggz9V3Vn-15" style="edgeStyle=none;html=1;" edge="1" parent="r-apHyeXqjx2ggz9V3Vn-1" source="r-apHyeXqjx2ggz9V3Vn-18" target="r-apHyeXqjx2ggz9V3Vn-4">
                    <mxGeometry relative="1" as="geometry"/>
                </mxCell>
                <mxCell id="r-apHyeXqjx2ggz9V3Vn-16" value="API Gateway&lt;div&gt;REST API&lt;/div&gt;" style="sketch=0;points=[[0,0,0],[0.25,0,0],[0.5,0,0],[0.75,0,0],[1,0,0],[0,1,0],[0.25,1,0],[0.5,1,0],[0.75,1,0],[1,1,0],[0,0.25,0],[0,0.5,0],[0,0.75,0],[1,0.25,0],[1,0.5,0],[1,0.75,0]];outlineConnect=0;fontColor=#232F3E;fillColor=#8C4FFF;strokeColor=#ffffff;dashed=0;verticalLabelPosition=middle;verticalAlign=middle;align=left;html=1;fontSize=12;fontStyle=0;aspect=fixed;shape=mxgraph.aws4.resourceIcon;resIcon=mxgraph.aws4.api_gateway;labelPosition=right;" vertex="1" parent="r-apHyeXqjx2ggz9V3Vn-1">
                    <mxGeometry x="240" y="100" width="50" height="50" as="geometry"/>
                </mxCell>
                <mxCell id="r-apHyeXqjx2ggz9V3Vn-17" value="" style="edgeStyle=none;html=1;" edge="1" parent="r-apHyeXqjx2ggz9V3Vn-1" source="r-apHyeXqjx2ggz9V3Vn-16" target="r-apHyeXqjx2ggz9V3Vn-18">
                    <mxGeometry relative="1" as="geometry">
                        <mxPoint x="265" y="150" as="sourcePoint"/>
                        <mxPoint x="265" y="350" as="targetPoint"/>
                    </mxGeometry>
                </mxCell>
                <mxCell id="r-apHyeXqjx2ggz9V3Vn-18" value="VPC Link" style="sketch=0;outlineConnect=0;fontColor=#232F3E;gradientColor=none;fillColor=#8C4FFF;strokeColor=none;dashed=0;verticalLabelPosition=middle;verticalAlign=middle;align=left;html=1;fontSize=12;fontStyle=0;aspect=fixed;pointerEvents=1;shape=mxgraph.aws4.endpoints;labelPosition=right;" vertex="1" parent="r-apHyeXqjx2ggz9V3Vn-1">
                    <mxGeometry x="240" y="180" width="50" height="50" as="geometry"/>
                </mxCell>
                <mxCell id="r-apHyeXqjx2ggz9V3Vn-19" value="AWS Cloud" style="points=[[0,0],[0.25,0],[0.5,0],[0.75,0],[1,0],[1,0.25],[1,0.5],[1,0.75],[1,1],[0.75,1],[0.5,1],[0.25,1],[0,1],[0,0.75],[0,0.5],[0,0.25]];outlineConnect=0;gradientColor=none;html=1;whiteSpace=wrap;fontSize=12;fontStyle=0;container=1;pointerEvents=0;collapsible=0;recursiveResize=0;shape=mxgraph.aws4.group;grIcon=mxgraph.aws4.group_aws_cloud;strokeColor=#232F3E;fillColor=none;verticalAlign=top;align=left;spacingLeft=30;fontColor=#232F3E;dashed=0;" vertex="1" parent="r-apHyeXqjx2ggz9V3Vn-1">
                    <mxGeometry y="70" width="540" height="590" as="geometry"/>
                </mxCell>
                <mxCell id="r-apHyeXqjx2ggz9V3Vn-20" style="edgeStyle=none;html=1;" edge="1" parent="r-apHyeXqjx2ggz9V3Vn-1" source="r-apHyeXqjx2ggz9V3Vn-21" target="r-apHyeXqjx2ggz9V3Vn-16">
                    <mxGeometry relative="1" as="geometry"/>
                </mxCell>
                <mxCell id="r-apHyeXqjx2ggz9V3Vn-21" value="Aplicação" style="rounded=1;whiteSpace=wrap;html=1;fontSize=10;fillColor=#000000;fontColor=#FFFFFF;strokeColor=#666666;" vertex="1" parent="r-apHyeXqjx2ggz9V3Vn-1">
                    <mxGeometry x="205" width="120" height="20" as="geometry"/>
                </mxCell>
                <mxCell id="r-apHyeXqjx2ggz9V3Vn-22" value="" style="group" vertex="1" connectable="0" parent="1">
                    <mxGeometry x="1320" y="-90" width="540" height="660" as="geometry"/>
                </mxCell>
                <mxCell id="r-apHyeXqjx2ggz9V3Vn-23" value="Private subnet" style="points=[[0,0],[0.25,0],[0.5,0],[0.75,0],[1,0],[1,0.25],[1,0.5],[1,0.75],[1,1],[0.75,1],[0.5,1],[0.25,1],[0,1],[0,0.75],[0,0.5],[0,0.25]];outlineConnect=0;gradientColor=none;html=1;whiteSpace=wrap;fontSize=12;fontStyle=0;container=1;pointerEvents=0;collapsible=0;recursiveResize=0;shape=mxgraph.aws4.group;grIcon=mxgraph.aws4.group_security_group;grStroke=0;strokeColor=#00A4A6;fillColor=#E6F6F7;verticalAlign=top;align=left;spacingLeft=30;fontColor=#147EBA;dashed=0;" vertex="1" parent="r-apHyeXqjx2ggz9V3Vn-22">
                    <mxGeometry x="50" y="326" width="450" height="250" as="geometry"/>
                </mxCell>
                <mxCell id="r-apHyeXqjx2ggz9V3Vn-24" value="Network Load Balancer&lt;div&gt;Internal&lt;/div&gt;" style="sketch=0;outlineConnect=0;fontColor=#232F3E;gradientColor=none;fillColor=#8C4FFF;strokeColor=none;dashed=0;verticalLabelPosition=middle;verticalAlign=middle;align=left;html=1;fontSize=12;fontStyle=0;aspect=fixed;pointerEvents=1;shape=mxgraph.aws4.network_load_balancer;labelPosition=right;" vertex="1" parent="r-apHyeXqjx2ggz9V3Vn-23">
                    <mxGeometry x="190" y="28" width="50" height="50" as="geometry"/>
                </mxCell>
                <mxCell id="r-apHyeXqjx2ggz9V3Vn-25" value="VPC" style="points=[[0,0],[0.25,0],[0.5,0],[0.75,0],[1,0],[1,0.25],[1,0.5],[1,0.75],[1,1],[0.75,1],[0.5,1],[0.25,1],[0,1],[0,0.75],[0,0.5],[0,0.25]];outlineConnect=0;gradientColor=none;html=1;whiteSpace=wrap;fontSize=12;fontStyle=0;container=1;pointerEvents=0;collapsible=0;recursiveResize=0;shape=mxgraph.aws4.group;grIcon=mxgraph.aws4.group_vpc2;strokeColor=#8C4FFF;fillColor=none;verticalAlign=top;align=left;spacingLeft=30;fontColor=#AAB7B8;dashed=0;" vertex="1" parent="r-apHyeXqjx2ggz9V3Vn-22">
                    <mxGeometry x="10" y="240" width="520" height="400" as="geometry"/>
                </mxCell>
                <mxCell id="r-apHyeXqjx2ggz9V3Vn-26" value="Region" style="sketch=0;outlineConnect=0;gradientColor=none;html=1;whiteSpace=wrap;fontSize=12;fontStyle=0;shape=mxgraph.aws4.group;grIcon=mxgraph.aws4.group_region;strokeColor=#879196;fillColor=none;verticalAlign=top;align=left;spacingLeft=30;fontColor=#879196;dashed=1;" vertex="1" parent="r-apHyeXqjx2ggz9V3Vn-25">
                    <mxGeometry x="30" y="30" width="470" height="330" as="geometry"/>
                </mxCell>
                <mxCell id="r-apHyeXqjx2ggz9V3Vn-27" value="Availability Zone" style="fillColor=none;strokeColor=#147EBA;dashed=1;verticalAlign=top;fontStyle=0;fontColor=#147EBA;whiteSpace=wrap;html=1;" vertex="1" parent="r-apHyeXqjx2ggz9V3Vn-25">
                    <mxGeometry x="110" y="40" width="320" height="340" as="geometry"/>
                </mxCell>
                <mxCell id="r-apHyeXqjx2ggz9V3Vn-28" style="edgeStyle=none;html=1;" edge="1" parent="r-apHyeXqjx2ggz9V3Vn-22" source="r-apHyeXqjx2ggz9V3Vn-32" target="r-apHyeXqjx2ggz9V3Vn-24">
                    <mxGeometry relative="1" as="geometry"/>
                </mxCell>
                <mxCell id="r-apHyeXqjx2ggz9V3Vn-29" value="" style="edgeStyle=none;html=1;" edge="1" parent="r-apHyeXqjx2ggz9V3Vn-22" source="r-apHyeXqjx2ggz9V3Vn-31" target="r-apHyeXqjx2ggz9V3Vn-32">
                    <mxGeometry relative="1" as="geometry">
                        <mxPoint x="265" y="150" as="sourcePoint"/>
                        <mxPoint x="265" y="350" as="targetPoint"/>
                    </mxGeometry>
                </mxCell>
                <mxCell id="r-apHyeXqjx2ggz9V3Vn-30" style="edgeStyle=none;html=1;" edge="1" parent="r-apHyeXqjx2ggz9V3Vn-22" source="r-apHyeXqjx2ggz9V3Vn-37" target="r-apHyeXqjx2ggz9V3Vn-31">
                    <mxGeometry relative="1" as="geometry"/>
                </mxCell>
                <mxCell id="r-apHyeXqjx2ggz9V3Vn-31" value="API Gateway&lt;div&gt;REST API&lt;/div&gt;" style="sketch=0;points=[[0,0,0],[0.25,0,0],[0.5,0,0],[0.75,0,0],[1,0,0],[0,1,0],[0.25,1,0],[0.5,1,0],[0.75,1,0],[1,1,0],[0,0.25,0],[0,0.5,0],[0,0.75,0],[1,0.25,0],[1,0.5,0],[1,0.75,0]];outlineConnect=0;fontColor=#232F3E;fillColor=#8C4FFF;strokeColor=#ffffff;dashed=0;verticalLabelPosition=middle;verticalAlign=middle;align=left;html=1;fontSize=12;fontStyle=0;aspect=fixed;shape=mxgraph.aws4.resourceIcon;resIcon=mxgraph.aws4.api_gateway;labelPosition=right;" vertex="1" parent="r-apHyeXqjx2ggz9V3Vn-22">
                    <mxGeometry x="240" y="100" width="50" height="50" as="geometry"/>
                </mxCell>
                <mxCell id="r-apHyeXqjx2ggz9V3Vn-32" value="VPC Link" style="sketch=0;outlineConnect=0;fontColor=#232F3E;gradientColor=none;fillColor=#8C4FFF;strokeColor=none;dashed=0;verticalLabelPosition=middle;verticalAlign=middle;align=left;html=1;fontSize=12;fontStyle=0;aspect=fixed;pointerEvents=1;shape=mxgraph.aws4.endpoints;labelPosition=right;" vertex="1" parent="r-apHyeXqjx2ggz9V3Vn-22">
                    <mxGeometry x="240" y="180" width="50" height="50" as="geometry"/>
                </mxCell>
                <mxCell id="r-apHyeXqjx2ggz9V3Vn-33" value="AWS Cloud" style="points=[[0,0],[0.25,0],[0.5,0],[0.75,0],[1,0],[1,0.25],[1,0.5],[1,0.75],[1,1],[0.75,1],[0.5,1],[0.25,1],[0,1],[0,0.75],[0,0.5],[0,0.25]];outlineConnect=0;gradientColor=none;html=1;whiteSpace=wrap;fontSize=12;fontStyle=0;container=1;pointerEvents=0;collapsible=0;recursiveResize=0;shape=mxgraph.aws4.group;grIcon=mxgraph.aws4.group_aws_cloud;strokeColor=#232F3E;fillColor=none;verticalAlign=top;align=left;spacingLeft=30;fontColor=#232F3E;dashed=0;" vertex="1" parent="r-apHyeXqjx2ggz9V3Vn-22">
                    <mxGeometry y="70" width="540" height="590" as="geometry"/>
                </mxCell>
                <mxCell id="r-apHyeXqjx2ggz9V3Vn-34" value="Application Load Balancer&lt;div&gt;Internal&lt;/div&gt;" style="sketch=0;outlineConnect=0;fontColor=#232F3E;gradientColor=none;fillColor=#8C4FFF;strokeColor=none;dashed=0;verticalLabelPosition=middle;verticalAlign=middle;align=left;html=1;fontSize=12;fontStyle=0;aspect=fixed;pointerEvents=1;shape=mxgraph.aws4.application_load_balancer;labelPosition=right;" vertex="1" parent="r-apHyeXqjx2ggz9V3Vn-33">
                    <mxGeometry x="240" y="365" width="50" height="50" as="geometry"/>
                </mxCell>
                <mxCell id="r-apHyeXqjx2ggz9V3Vn-35" value="Elastic Container Service&lt;div&gt;Fargate&lt;/div&gt;" style="sketch=0;points=[[0,0,0],[0.25,0,0],[0.5,0,0],[0.75,0,0],[1,0,0],[0,1,0],[0.25,1,0],[0.5,1,0],[0.75,1,0],[1,1,0],[0,0.25,0],[0,0.5,0],[0,0.75,0],[1,0.25,0],[1,0.5,0],[1,0.75,0]];outlineConnect=0;fontColor=#232F3E;fillColor=#ED7100;strokeColor=#ffffff;dashed=0;verticalLabelPosition=middle;verticalAlign=middle;align=left;html=1;fontSize=12;fontStyle=0;aspect=fixed;shape=mxgraph.aws4.resourceIcon;resIcon=mxgraph.aws4.fargate;labelPosition=right;" vertex="1" parent="r-apHyeXqjx2ggz9V3Vn-33">
                    <mxGeometry x="240" y="446" width="50" height="50" as="geometry"/>
                </mxCell>
                <mxCell id="r-apHyeXqjx2ggz9V3Vn-36" style="edgeStyle=none;html=1;" edge="1" parent="r-apHyeXqjx2ggz9V3Vn-33" source="r-apHyeXqjx2ggz9V3Vn-34" target="r-apHyeXqjx2ggz9V3Vn-35">
                    <mxGeometry relative="1" as="geometry"/>
                </mxCell>
                <mxCell id="r-apHyeXqjx2ggz9V3Vn-37" value="Aplicação" style="rounded=1;whiteSpace=wrap;html=1;fontSize=10;fillColor=#000000;fontColor=#FFFFFF;strokeColor=#666666;" vertex="1" parent="r-apHyeXqjx2ggz9V3Vn-22">
                    <mxGeometry x="205" width="120" height="20" as="geometry"/>
                </mxCell>
                <mxCell id="r-apHyeXqjx2ggz9V3Vn-38" style="edgeStyle=none;html=1;" edge="1" parent="r-apHyeXqjx2ggz9V3Vn-22" source="r-apHyeXqjx2ggz9V3Vn-24" target="r-apHyeXqjx2ggz9V3Vn-34">
                    <mxGeometry relative="1" as="geometry">
                        <mxPoint x="265" y="444" as="targetPoint"/>
                    </mxGeometry>
                </mxCell>
                <mxCell id="r-apHyeXqjx2ggz9V3Vn-39" value="Private subnet" style="points=[[0,0],[0.25,0],[0.5,0],[0.75,0],[1,0],[1,0.25],[1,0.5],[1,0.75],[1,1],[0.75,1],[0.5,1],[0.25,1],[0,1],[0,0.75],[0,0.5],[0,0.25]];outlineConnect=0;gradientColor=none;html=1;whiteSpace=wrap;fontSize=12;fontStyle=0;container=1;pointerEvents=0;collapsible=0;recursiveResize=0;shape=mxgraph.aws4.group;grIcon=mxgraph.aws4.group_security_group;grStroke=0;strokeColor=#00A4A6;fillColor=#E6F6F7;verticalAlign=top;align=left;spacingLeft=30;fontColor=#147EBA;dashed=0;" vertex="1" parent="1">
                    <mxGeometry x="750" y="236" width="450" height="250" as="geometry"/>
                </mxCell>
                <mxCell id="r-apHyeXqjx2ggz9V3Vn-40" style="edgeStyle=none;html=1;entryX=0.5;entryY=0;entryDx=0;entryDy=0;" edge="1" parent="r-apHyeXqjx2ggz9V3Vn-39" source="r-apHyeXqjx2ggz9V3Vn-41" target="r-apHyeXqjx2ggz9V3Vn-45">
                    <mxGeometry relative="1" as="geometry"/>
                </mxCell>
                <mxCell id="r-apHyeXqjx2ggz9V3Vn-41" value="Network Load Balancer&lt;div&gt;Internal&lt;/div&gt;" style="sketch=0;outlineConnect=0;fontColor=#232F3E;gradientColor=none;fillColor=#8C4FFF;strokeColor=none;dashed=0;verticalLabelPosition=middle;verticalAlign=middle;align=left;html=1;fontSize=12;fontStyle=0;aspect=fixed;pointerEvents=1;shape=mxgraph.aws4.network_load_balancer;labelPosition=right;" vertex="1" parent="r-apHyeXqjx2ggz9V3Vn-39">
                    <mxGeometry x="190" y="40" width="50" height="50" as="geometry"/>
                </mxCell>
                <mxCell id="r-apHyeXqjx2ggz9V3Vn-42" value="EKS" style="points=[[0,0],[0.25,0],[0.5,0],[0.75,0],[1,0],[1,0.25],[1,0.5],[1,0.75],[1,1],[0.75,1],[0.5,1],[0.25,1],[0,1],[0,0.75],[0,0.5],[0,0.25]];outlineConnect=0;gradientColor=none;html=1;whiteSpace=wrap;fontSize=12;fontStyle=0;container=1;pointerEvents=0;collapsible=0;recursiveResize=0;shape=mxgraph.aws4.group;grIcon=mxgraph.aws4.group_ec2_instance_contents;strokeColor=#D86613;fillColor=none;verticalAlign=top;align=left;spacingLeft=30;fontColor=#D86613;dashed=0;" vertex="1" parent="r-apHyeXqjx2ggz9V3Vn-39">
                    <mxGeometry x="20" y="110" width="410" height="130" as="geometry"/>
                </mxCell>
                <mxCell id="r-apHyeXqjx2ggz9V3Vn-43" value="" style="sketch=0;points=[[0,0,0],[0.25,0,0],[0.5,0,0],[0.75,0,0],[1,0,0],[0,1,0],[0.25,1,0],[0.5,1,0],[0.75,1,0],[1,1,0],[0,0.25,0],[0,0.5,0],[0,0.75,0],[1,0.25,0],[1,0.5,0],[1,0.75,0]];outlineConnect=0;fontColor=#232F3E;fillColor=#ED7100;strokeColor=#ffffff;dashed=0;verticalLabelPosition=bottom;verticalAlign=top;align=center;html=1;fontSize=12;fontStyle=0;aspect=fixed;shape=mxgraph.aws4.resourceIcon;resIcon=mxgraph.aws4.eks;" vertex="1" parent="r-apHyeXqjx2ggz9V3Vn-42">
                    <mxGeometry width="30" height="30" as="geometry"/>
                </mxCell>
                <mxCell id="r-apHyeXqjx2ggz9V3Vn-44" style="edgeStyle=none;html=1;exitX=0.5;exitY=1;exitDx=0;exitDy=0;" edge="1" parent="r-apHyeXqjx2ggz9V3Vn-42" source="r-apHyeXqjx2ggz9V3Vn-45" target="r-apHyeXqjx2ggz9V3Vn-47">
                    <mxGeometry relative="1" as="geometry"/>
                </mxCell>
                <mxCell id="r-apHyeXqjx2ggz9V3Vn-45" value="Ingress Controler" style="rounded=1;whiteSpace=wrap;html=1;fontSize=10;fillColor=#000000;fontColor=#FFFFFF;strokeColor=#666666;" vertex="1" parent="r-apHyeXqjx2ggz9V3Vn-42">
                    <mxGeometry x="135" y="20" width="120" height="20" as="geometry"/>
                </mxCell>
                <mxCell id="r-apHyeXqjx2ggz9V3Vn-46" style="edgeStyle=none;html=1;exitX=0.5;exitY=1;exitDx=0;exitDy=0;" edge="1" parent="r-apHyeXqjx2ggz9V3Vn-42" source="r-apHyeXqjx2ggz9V3Vn-47" target="r-apHyeXqjx2ggz9V3Vn-48">
                    <mxGeometry relative="1" as="geometry"/>
                </mxCell>
                <mxCell id="r-apHyeXqjx2ggz9V3Vn-47" value="Service" style="rounded=1;whiteSpace=wrap;html=1;fontSize=10;fillColor=#000000;fontColor=#FFFFFF;strokeColor=#666666;" vertex="1" parent="r-apHyeXqjx2ggz9V3Vn-42">
                    <mxGeometry x="135" y="60" width="120" height="20" as="geometry"/>
                </mxCell>
                <mxCell id="r-apHyeXqjx2ggz9V3Vn-48" value="POD" style="rounded=1;whiteSpace=wrap;html=1;fontSize=10;fillColor=#000000;fontColor=#FFFFFF;strokeColor=#666666;" vertex="1" parent="r-apHyeXqjx2ggz9V3Vn-42">
                    <mxGeometry x="135" y="100" width="120" height="20" as="geometry"/>
                </mxCell>
                <mxCell id="r-apHyeXqjx2ggz9V3Vn-49" value="VPC" style="points=[[0,0],[0.25,0],[0.5,0],[0.75,0],[1,0],[1,0.25],[1,0.5],[1,0.75],[1,1],[0.75,1],[0.5,1],[0.25,1],[0,1],[0,0.75],[0,0.5],[0,0.25]];outlineConnect=0;gradientColor=none;html=1;whiteSpace=wrap;fontSize=12;fontStyle=0;container=1;pointerEvents=0;collapsible=0;recursiveResize=0;shape=mxgraph.aws4.group;grIcon=mxgraph.aws4.group_vpc2;strokeColor=#8C4FFF;fillColor=none;verticalAlign=top;align=left;spacingLeft=30;fontColor=#AAB7B8;dashed=0;" vertex="1" parent="1">
                    <mxGeometry x="710" y="150" width="520" height="400" as="geometry"/>
                </mxCell>
                <mxCell id="r-apHyeXqjx2ggz9V3Vn-50" value="Region" style="sketch=0;outlineConnect=0;gradientColor=none;html=1;whiteSpace=wrap;fontSize=12;fontStyle=0;shape=mxgraph.aws4.group;grIcon=mxgraph.aws4.group_region;strokeColor=#879196;fillColor=none;verticalAlign=top;align=left;spacingLeft=30;fontColor=#879196;dashed=1;" vertex="1" parent="r-apHyeXqjx2ggz9V3Vn-49">
                    <mxGeometry x="30" y="30" width="470" height="330" as="geometry"/>
                </mxCell>
                <mxCell id="r-apHyeXqjx2ggz9V3Vn-51" value="Availability Zone" style="fillColor=none;strokeColor=#147EBA;dashed=1;verticalAlign=top;fontStyle=0;fontColor=#147EBA;whiteSpace=wrap;html=1;" vertex="1" parent="r-apHyeXqjx2ggz9V3Vn-49">
                    <mxGeometry x="110" y="40" width="320" height="340" as="geometry"/>
                </mxCell>
                <mxCell id="r-apHyeXqjx2ggz9V3Vn-52" style="edgeStyle=none;html=1;exitX=0.5;exitY=1;exitDx=0;exitDy=0;exitPerimeter=0;" edge="1" parent="1" source="r-apHyeXqjx2ggz9V3Vn-55" target="r-apHyeXqjx2ggz9V3Vn-41">
                    <mxGeometry relative="1" as="geometry">
                        <mxPoint x="965" y="140" as="sourcePoint"/>
                    </mxGeometry>
                </mxCell>
                <mxCell id="r-apHyeXqjx2ggz9V3Vn-53" value="[VPC Origin]" style="edgeLabel;html=1;align=center;verticalAlign=middle;resizable=0;points=[];" vertex="1" connectable="0" parent="r-apHyeXqjx2ggz9V3Vn-52">
                    <mxGeometry x="-0.7564" y="2" relative="1" as="geometry">
                        <mxPoint x="33" y="9" as="offset"/>
                    </mxGeometry>
                </mxCell>
                <mxCell id="r-apHyeXqjx2ggz9V3Vn-54" value="AWS Cloud" style="points=[[0,0],[0.25,0],[0.5,0],[0.75,0],[1,0],[1,0.25],[1,0.5],[1,0.75],[1,1],[0.75,1],[0.5,1],[0.25,1],[0,1],[0,0.75],[0,0.5],[0,0.25]];outlineConnect=0;gradientColor=none;html=1;whiteSpace=wrap;fontSize=12;fontStyle=0;container=1;pointerEvents=0;collapsible=0;recursiveResize=0;shape=mxgraph.aws4.group;grIcon=mxgraph.aws4.group_aws_cloud;strokeColor=#232F3E;fillColor=none;verticalAlign=top;align=left;spacingLeft=30;fontColor=#232F3E;dashed=0;" vertex="1" parent="1">
                    <mxGeometry x="700" y="-20" width="540" height="590" as="geometry"/>
                </mxCell>
                <mxCell id="r-apHyeXqjx2ggz9V3Vn-55" value="CloudFont" style="sketch=0;points=[[0,0,0],[0.25,0,0],[0.5,0,0],[0.75,0,0],[1,0,0],[0,1,0],[0.25,1,0],[0.5,1,0],[0.75,1,0],[1,1,0],[0,0.25,0],[0,0.5,0],[0,0.75,0],[1,0.25,0],[1,0.5,0],[1,0.75,0]];outlineConnect=0;fontColor=#232F3E;fillColor=#8C4FFF;strokeColor=#ffffff;dashed=0;verticalLabelPosition=middle;verticalAlign=middle;align=left;html=1;fontSize=12;fontStyle=0;aspect=fixed;shape=mxgraph.aws4.resourceIcon;resIcon=mxgraph.aws4.cloudfront;labelPosition=right;" vertex="1" parent="r-apHyeXqjx2ggz9V3Vn-54">
                    <mxGeometry x="240" y="70" width="50" height="50" as="geometry"/>
                </mxCell>
                <mxCell id="r-apHyeXqjx2ggz9V3Vn-56" style="edgeStyle=none;html=1;entryX=0.5;entryY=0;entryDx=0;entryDy=0;entryPerimeter=0;" edge="1" parent="1" source="r-apHyeXqjx2ggz9V3Vn-57" target="r-apHyeXqjx2ggz9V3Vn-55">
                    <mxGeometry relative="1" as="geometry">
                        <mxPoint x="965" y="10" as="targetPoint"/>
                    </mxGeometry>
                </mxCell>
                <mxCell id="r-apHyeXqjx2ggz9V3Vn-57" value="Aplicação" style="rounded=1;whiteSpace=wrap;html=1;fontSize=10;fillColor=#000000;fontColor=#FFFFFF;strokeColor=#666666;" vertex="1" parent="1">
                    <mxGeometry x="905" y="-90" width="120" height="20" as="geometry"/>
                </mxCell>
            </root>
        </mxGraphModel>
    </diagram>
    <diagram id="7zJRjePFEkqeR023b0y-" name="Lab1">
        <mxGraphModel dx="867" dy="1701" grid="1" gridSize="10" guides="1" tooltips="1" connect="1" arrows="1" fold="1" page="1" pageScale="1" pageWidth="850" pageHeight="1100" math="0" shadow="0">
            <root>
                <mxCell id="0"/>
                <mxCell id="1" parent="0"/>
                <mxCell id="16" value="Availability Zone" style="fillColor=none;strokeColor=#147EBA;dashed=1;verticalAlign=top;fontStyle=0;fontColor=#147EBA;whiteSpace=wrap;html=1;" vertex="1" parent="1">
                    <mxGeometry x="400" y="-60" width="350" height="470" as="geometry"/>
                </mxCell>
                <mxCell id="15" value="VPC" style="sketch=0;outlineConnect=0;gradientColor=none;html=1;whiteSpace=wrap;fontSize=12;fontStyle=0;shape=mxgraph.aws4.group;grIcon=mxgraph.aws4.group_vpc;strokeColor=#879196;fillColor=none;verticalAlign=top;align=left;spacingLeft=30;fontColor=#879196;dashed=0;" vertex="1" parent="1">
                    <mxGeometry x="375" width="400" height="390" as="geometry"/>
                </mxCell>
                <mxCell id="2" value="Public subnet" style="points=[[0,0],[0.25,0],[0.5,0],[0.75,0],[1,0],[1,0.25],[1,0.5],[1,0.75],[1,1],[0.75,1],[0.5,1],[0.25,1],[0,1],[0,0.75],[0,0.5],[0,0.25]];outlineConnect=0;gradientColor=none;html=1;whiteSpace=wrap;fontSize=12;fontStyle=0;container=1;pointerEvents=0;collapsible=0;recursiveResize=0;shape=mxgraph.aws4.group;grIcon=mxgraph.aws4.group_security_group;grStroke=0;strokeColor=#7AA116;fillColor=#F2F6E8;verticalAlign=top;align=left;spacingLeft=30;fontColor=#248814;dashed=0;" vertex="1" parent="1">
                    <mxGeometry x="420" y="80" width="310" height="130" as="geometry"/>
                </mxCell>
                <mxCell id="4" value="NAT&lt;div&gt;Gatway&lt;/div&gt;" style="outlineConnect=0;dashed=0;verticalLabelPosition=middle;verticalAlign=middle;align=left;html=1;shape=mxgraph.aws3.vpc_nat_gateway;fillColor=#F58534;gradientColor=none;aspect=fixed;labelPosition=right;" vertex="1" parent="2">
                    <mxGeometry x="40" y="38.91" width="50" height="52.17" as="geometry"/>
                </mxCell>
                <mxCell id="6" value="Application&lt;div&gt;Load Balancer&lt;/div&gt;" style="outlineConnect=0;dashed=0;verticalLabelPosition=middle;verticalAlign=middle;align=left;html=1;shape=mxgraph.aws3.application_load_balancer;fillColor=#F58534;gradientColor=none;aspect=fixed;labelPosition=right;" vertex="1" parent="2">
                    <mxGeometry x="170" y="38.91" width="50" height="52.17" as="geometry"/>
                </mxCell>
                <mxCell id="3" value="Private subnet" style="points=[[0,0],[0.25,0],[0.5,0],[0.75,0],[1,0],[1,0.25],[1,0.5],[1,0.75],[1,1],[0.75,1],[0.5,1],[0.25,1],[0,1],[0,0.75],[0,0.5],[0,0.25]];outlineConnect=0;gradientColor=none;html=1;whiteSpace=wrap;fontSize=12;fontStyle=0;container=1;pointerEvents=0;collapsible=0;recursiveResize=0;shape=mxgraph.aws4.group;grIcon=mxgraph.aws4.group_security_group;grStroke=0;strokeColor=#00A4A6;fillColor=#E6F6F7;verticalAlign=top;align=left;spacingLeft=30;fontColor=#147EBA;dashed=0;" vertex="1" parent="1">
                    <mxGeometry x="420" y="240" width="310" height="130" as="geometry"/>
                </mxCell>
                <mxCell id="7" value="EC2&lt;div&gt;Node 1&lt;/div&gt;" style="sketch=0;points=[[0,0,0],[0.25,0,0],[0.5,0,0],[0.75,0,0],[1,0,0],[0,1,0],[0.25,1,0],[0.5,1,0],[0.75,1,0],[1,1,0],[0,0.25,0],[0,0.5,0],[0,0.75,0],[1,0.25,0],[1,0.5,0],[1,0.75,0]];outlineConnect=0;fontColor=#232F3E;fillColor=#ED7100;strokeColor=#ffffff;dashed=0;verticalLabelPosition=bottom;verticalAlign=top;align=center;html=1;fontSize=12;fontStyle=0;aspect=fixed;shape=mxgraph.aws4.resourceIcon;resIcon=mxgraph.aws4.ec2;" vertex="1" parent="3">
                    <mxGeometry x="40" y="40" width="50" height="50" as="geometry"/>
                </mxCell>
                <mxCell id="8" value="EC2&lt;div&gt;Node 2&lt;/div&gt;" style="sketch=0;points=[[0,0,0],[0.25,0,0],[0.5,0,0],[0.75,0,0],[1,0,0],[0,1,0],[0.25,1,0],[0.5,1,0],[0.75,1,0],[1,1,0],[0,0.25,0],[0,0.5,0],[0,0.75,0],[1,0.25,0],[1,0.5,0],[1,0.75,0]];outlineConnect=0;fontColor=#232F3E;fillColor=#ED7100;strokeColor=#ffffff;dashed=0;verticalLabelPosition=bottom;verticalAlign=top;align=center;html=1;fontSize=12;fontStyle=0;aspect=fixed;shape=mxgraph.aws4.resourceIcon;resIcon=mxgraph.aws4.ec2;" vertex="1" parent="3">
                    <mxGeometry x="200" y="40" width="50" height="50" as="geometry"/>
                </mxCell>
                <mxCell id="12" style="edgeStyle=none;html=1;" edge="1" parent="1" source="5" target="6">
                    <mxGeometry relative="1" as="geometry"/>
                </mxCell>
                <mxCell id="5" value="Internet&lt;div&gt;Gateway&lt;/div&gt;" style="outlineConnect=0;dashed=0;verticalLabelPosition=middle;verticalAlign=middle;align=left;html=1;shape=mxgraph.aws3.internet_gateway;fillColor=#F58536;gradientColor=none;aspect=fixed;labelPosition=right;" vertex="1" parent="1">
                    <mxGeometry x="590" y="-26" width="50" height="52.17" as="geometry"/>
                </mxCell>
                <mxCell id="9" style="edgeStyle=none;html=1;entryX=0.5;entryY=0;entryDx=0;entryDy=0;entryPerimeter=0;" edge="1" parent="1" source="5" target="4">
                    <mxGeometry relative="1" as="geometry">
                        <Array as="points">
                            <mxPoint x="615" y="40"/>
                            <mxPoint x="485" y="40"/>
                        </Array>
                    </mxGeometry>
                </mxCell>
                <mxCell id="10" style="edgeStyle=none;html=1;exitX=0.5;exitY=1;exitDx=0;exitDy=0;exitPerimeter=0;entryX=0.5;entryY=0;entryDx=0;entryDy=0;entryPerimeter=0;dashed=1;endArrow=none;endFill=0;startArrow=classic;startFill=1;" edge="1" parent="1" source="4" target="7">
                    <mxGeometry relative="1" as="geometry"/>
                </mxCell>
                <mxCell id="11" style="edgeStyle=none;html=1;entryX=0.5;entryY=0;entryDx=0;entryDy=0;entryPerimeter=0;startArrow=classic;startFill=1;endArrow=none;endFill=0;dashed=1;" edge="1" parent="1" source="4" target="8">
                    <mxGeometry relative="1" as="geometry">
                        <Array as="points">
                            <mxPoint x="485" y="230"/>
                            <mxPoint x="645" y="230"/>
                        </Array>
                    </mxGeometry>
                </mxCell>
                <mxCell id="13" style="edgeStyle=none;html=1;entryX=0.75;entryY=0;entryDx=0;entryDy=0;entryPerimeter=0;jumpStyle=arc;" edge="1" parent="1" source="6" target="7">
                    <mxGeometry relative="1" as="geometry">
                        <Array as="points">
                            <mxPoint x="615" y="190"/>
                            <mxPoint x="498" y="190"/>
                        </Array>
                    </mxGeometry>
                </mxCell>
                <mxCell id="14" style="edgeStyle=none;html=1;entryX=0.75;entryY=0;entryDx=0;entryDy=0;entryPerimeter=0;" edge="1" parent="1" source="6" target="8">
                    <mxGeometry relative="1" as="geometry">
                        <Array as="points">
                            <mxPoint x="615" y="190"/>
                            <mxPoint x="658" y="190"/>
                        </Array>
                    </mxGeometry>
                </mxCell>
                <mxCell id="17" value="AWS Cloud" style="points=[[0,0],[0.25,0],[0.5,0],[0.75,0],[1,0],[1,0.25],[1,0.5],[1,0.75],[1,1],[0.75,1],[0.5,1],[0.25,1],[0,1],[0,0.75],[0,0.5],[0,0.25]];outlineConnect=0;gradientColor=none;html=1;whiteSpace=wrap;fontSize=12;fontStyle=0;container=1;pointerEvents=0;collapsible=0;recursiveResize=0;shape=mxgraph.aws4.group;grIcon=mxgraph.aws4.group_aws_cloud;strokeColor=#232F3E;fillColor=none;verticalAlign=top;align=left;spacingLeft=30;fontColor=#232F3E;dashed=0;" vertex="1" parent="1">
                    <mxGeometry x="340" y="-80" width="470" height="520" as="geometry"/>
                </mxCell>
                <mxCell id="18" value="80%" style="text;html=1;align=center;verticalAlign=middle;whiteSpace=wrap;rounded=0;" vertex="1" parent="17">
                    <mxGeometry x="190" y="245" width="60" height="30" as="geometry"/>
                </mxCell>
                <mxCell id="19" value="20%" style="text;html=1;align=center;verticalAlign=middle;whiteSpace=wrap;rounded=0;" vertex="1" parent="17">
                    <mxGeometry x="275" y="245" width="60" height="30" as="geometry"/>
                </mxCell>
                <mxCell id="2omUVZZSrQHH0H-TDdtZ-20" style="edgeStyle=none;html=1;dashed=1;startArrow=classic;startFill=1;" edge="1" parent="1" source="2omUVZZSrQHH0H-TDdtZ-19" target="5">
                    <mxGeometry relative="1" as="geometry"/>
                </mxCell>
                <mxCell id="2omUVZZSrQHH0H-TDdtZ-19" value="" style="outlineConnect=0;dashed=0;verticalLabelPosition=bottom;verticalAlign=top;align=center;html=1;shape=mxgraph.aws3.internet_3;fillColor=#D2D3D3;gradientColor=none;aspect=fixed;" vertex="1" parent="1">
                    <mxGeometry x="590" y="-150" width="50" height="33.96" as="geometry"/>
                </mxCell>
            </root>
        </mxGraphModel>
    </diagram>
</mxfile>